<svg xmlns="http://www.w3.org/2000/svg" width="190" height="94" fill="none"><path fill="url(#a)" d="M42.947 93.44c-3.199 0-6.388-.817-9.233-2.461L9.234 76.844A18.536 18.536 0 0 1 0 60.848V32.587a18.536 18.536 0 0 1 9.233-15.996L33.704 2.466a18.538 18.538 0 0 1 18.477 0L76.65 16.59a18.515 18.515 0 0 1 9.234 15.996v28.26a18.536 18.536 0 0 1-9.233 15.997L52.18 90.979a18.46 18.46 0 0 1-9.234 2.46Zm0-85.452a10.44 10.44 0 0 0-5.236 1.398L13.24 23.52a10.516 10.516 0 0 0-5.237 9.066v28.26a10.52 10.52 0 0 0 5.237 9.077l24.47 14.125a10.525 10.525 0 0 0 10.474 0l24.471-14.125a10.52 10.52 0 0 0 5.237-9.076v-28.26c0-3.73-2.008-7.205-5.237-9.066L48.185 9.396a10.45 10.45 0 0 0-5.238-1.408Z"/><path fill="#135CAB" d="M28.27 52.126h.118l.118-1.447 4.223-13.938h6.743l1.644 20.248h-5.404l-.522-13.131v-1.624h-.118l-.148 1.594L30.87 56.99h-5l-4.046-13.16-.119-1.595h-.118v1.594l-.57 13.161H15.61l1.644-20.248h6.743L28.22 50.68l.05 1.447Zm27.936 0h.118l.118-1.447 4.223-13.938h6.743l1.644 20.248h-5.405l-.521-13.131v-1.624h-.118l-.148 1.594-4.046 13.161h-5l-4.046-13.16-.118-1.595h-.118v1.594L48.95 56.99h-5.404l1.644-20.248h6.743l4.222 13.938.05 1.447Z"/><path fill="#EB3051" d="M95.581 36.741h5.611v15.937h6.477V36.74h5.611v15.937h2.343l-.315 8.642h-5.326v-4.33h-14.4V36.74ZM124.039 48.8v3.907h8.18v4.282h-13.791V36.741h13.791v4.282h-8.18v3.583h6.624v4.193h-6.624Zm23.713-12.059h5.611v20.248h-5.611v-8.475h-7.087v8.475h-5.611V36.741h5.611v7.461h7.087v-7.461Zm7.865 4.971v-4.971h15.907v4.971h-5.148v15.277h-5.611V41.712h-5.148Zm18.161-4.971h7.609c3.101 0 5.316.551 6.635 1.644 1.319 1.102 1.979 3.002 1.979 5.7 0 2.696-.67 4.616-1.999 5.758-1.329 1.142-3.534 1.703-6.624 1.703h-1.999v5.433h-5.61V36.741h.009Zm5.611 4.341v6.162h1.998c.965 0 1.694-.216 2.196-.67.502-.452.748-1.279.748-2.52 0-1.141-.237-1.919-.709-2.342-.473-.423-1.221-.64-2.244-.64h-1.989v.01Z"/><defs><linearGradient id="a" x1="42.946" x2="42.946" y1="35.854" y2="59.523" gradientUnits="userSpaceOnUse"><stop stop-color="#125EA9"/><stop offset="1" stop-color="#EA3352"/></linearGradient></defs></svg>