<?xml version="1.0" encoding="UTF-8"?>
<svg xmlns="http://www.w3.org/2000/svg" viewBox="0 0 68.792 13.229" height="50" width="260"><g stroke="#000"><g fill="#cb3a3a" stroke="#bb3a3a"><path d="M.53 11.906L5.364 1.493l3.042 6.251 3.053-6.251 4.825 10.413h-3.772L11.46 9.834l-1.053 2.072H6.414L5.365 9.834 4.32 11.906z" stroke-width=".277"/><path d="M18.93 7.676l2.237 4.23H17.37l-2.877-6.35 4.436-.004c1.53 0 1.514-2.106 0-2.106l-5.416-.007-.994-2.116h6.433c4.373 0 5.067 6.353-.023 6.353z" stroke-width=".287"/></g><g style="line-height:1.25;-inkscape-font-specification:Ubuntu" aria-label="МОСКОВСКАЯ" font-weight="400" font-size="10.583" font-family="sans-serif" letter-spacing="0" word-spacing="0" stroke-width=".075" stroke="#313131" fill="#373737"><text style="line-height:1.25" x="51.199" y="107.571" transform="matrix(1 0 0 1 -26.57 -101.96)"><tspan x="51.199" y="107.571" style="-inkscape-font-specification:sans-serif" font-size="4.939">МОСКОВСКАЯ</tspan></text><text style="line-height:1.25" x="122.32" y="126.542" transform="matrix(1 0 0 1 -26.57 -101.96)"/><text style="line-height:1.25" x="51.199" y="113.206" transform="matrix(1 0 0 1 -26.57 -101.96)"><tspan x="51.199" y="113.206" font-size="4.939">РЕКОНСТРУКЦИЯ</tspan></text></g></g></svg>