<?xml version="1.0" encoding="utf-8"?>
<!-- Generator: Adobe Illustrator 19.2.1, SVG Export Plug-In . SVG Version: 6.00 Build 0)  -->
<svg version="1.1" id="Слой_1" xmlns="http://www.w3.org/2000/svg" xmlns:xlink="http://www.w3.org/1999/xlink" x="0px" y="0px"
	 viewBox="0 0 1792 365" style="enable-background:new 0 0 1792 365;" xml:space="preserve">
<style type="text/css">
	.st0{fill:#FFFFFF;}
	.st1{fill:#DE0020;}
	.st2{fill:#6B6C6E;}
</style>
<g>
	<polygon class="st0" points="74.5,131 133.5,47.7 271.8,56.7 334.5,177.5 273.5,275 143.3,273.3 58.1,159.6 	"/>
	<path class="st1" d="M250.6,133.8c-3.3,6.8-4.8,16-3.7,23.2c5.1,33.6-13.2,65-47,72.6c7.4-14.1,13.4-25.4,19.2-36.8
		c7.1-14-6.6-39-20.4-39.5c-18-0.6-31.5,5.2-38.4,26.1c-2.4,7.2-7,13.8-11.2,21.7c-13.3-22.9-2.6-59,22.8-72.1
		c17.6-9.1,26.5-22.6,34.7-39.4"/>
	<path class="st1" d="M149.4,333.8c6.8-12.4,12.8-23.4,19.5-35.5c3.5-6.5-1.1-14.4-8.4-14.5c-5.7-0.1-10.9-0.1-16,0.4
		c-12.1,1-20-2.8-24.7-14.6c-1.5-3.8-3.6-7.3-5.9-11c-3.9-6.1-12.8-6.1-16.6,0.1c-6.7,11.1-13.3,22-20.7,34.2
		c-7.9-13.7-14.5-25.2-21.1-36.7c-11.8-20.5-23.6-41.1-35.4-61.5c-5.9-10.2-5.9-22.8,0-33c23.9-41.4,47.8-82.9,71.8-124.3
		c6.6-11.4,16.6-16.6,30.1-16.5c45.9,0.3,91.7,0.3,137.6,0c14-0.1,24.1,5.6,31,17.6c22.6,39.3,45.1,78.6,68.1,117.7
		c8,13.6,8.2,26,0.1,39.7c-23.4,40-45.7,80.7-69.9,120.2c-4.9,7.9-16.1,16.4-24.8,16.8C226.9,334.8,189.7,333.8,149.4,333.8
		 M199.6,101.8c9.4-16.4,11-17,22.1-36.8c-25.9,0-48.3,0.6-70.7-0.2c-12.7-0.5-20.8,4-27,14.9c-12.7,22.8-26.9,44.9-38.8,68.2
		c-1.4,2.8-2.2,6.4-2.4,10.1c0,0.5,0,1,0,1.6c0,4.2,0.9,8.5,2.6,11.7c15,28.5,31.2,56.4,48.3,83.7c3.4,5.5,12.4,10.3,18.9,10.5
		c30.7,1.1,61.5,0.2,92.2,0.6c10.7,0.2,18.2-3.4,23.5-12.9c13.6-24.1,28-47.8,41.1-72.2c2.7-5,3.8-13.5,1.3-18.2
		c-11.6-22.2-23.7-41.8-37.7-65.9c-3.8,5.1-21.2,34.2-22.9,37.1"/>
	<polygon class="st1" points="417.5,68.4 464.9,68.4 487.6,180.1 488,180.1 510.8,68.4 558,68.4 558,226.7 528.8,226.7 528.8,100.3 
		528.3,100.3 500.2,226.7 475.4,226.7 447.2,100.3 446.8,100.3 446.8,226.7 417.5,226.7 	"/>
	<path class="st1" d="M631.4,229.1c-12,0-21.5-2-28.6-5.9c-7.1-3.9-12.5-9.5-16.3-16.6c-3.8-7.2-6.2-15.7-7.3-25.7
		c-1.1-10-1.7-21.1-1.7-33.4c0-12,0.6-23,1.7-33.1c1.1-10.1,3.5-18.8,7.3-26c3.8-7.2,9.2-12.9,16.3-17c7.1-4.1,16.6-6.1,28.6-6.1
		c12,0,21.5,2,28.6,6.1c7.1,4.1,12.5,9.7,16.3,17c3.8,7.2,6.2,15.9,7.3,26c1.1,10.1,1.7,21.2,1.7,33.1c0,12.3-0.6,23.4-1.7,33.4
		c-1.1,10-3.5,18.5-7.3,25.7c-3.8,7.2-9.2,12.7-16.3,16.6C652.9,227.1,643.3,229.1,631.4,229.1 M631.4,206.3c4.7,0,8.5-1.1,11.4-3.2
		c2.9-2.1,5.1-5.5,6.6-10.2s2.6-10.7,3.1-18.2c0.5-7.5,0.8-16.5,0.8-27.1c0-10.6-0.3-19.6-0.8-27c-0.5-7.4-1.6-13.4-3.1-18.2
		c-1.6-4.7-3.8-8.2-6.6-10.3c-2.9-2.1-6.7-3.2-11.4-3.2c-4.7,0-8.5,1.1-11.4,3.2c-2.9,2.1-5.1,5.6-6.6,10.3
		c-1.6,4.7-2.6,10.8-3.1,18.2c-0.5,7.4-0.8,16.4-0.8,27c0,10.6,0.3,19.7,0.8,27.1c0.5,7.5,1.6,13.5,3.1,18.2
		c1.6,4.7,3.8,8.1,6.6,10.2C622.8,205.2,626.6,206.3,631.4,206.3"/>
	<path class="st1" d="M754.6,229.1c-12,0-21.5-2-28.6-5.9c-7.1-3.9-12.5-9.5-16.3-16.6c-3.8-7.2-6.2-15.7-7.3-25.7
		c-1.1-10-1.7-21.1-1.7-33.4c0-12,0.6-23,1.7-33.1c1.1-10.1,3.5-18.8,7.3-26c3.8-7.2,9.2-12.9,16.3-17c7.1-4.1,16.6-6.1,28.6-6.1
		c11.4,0,20.3,1.8,26.9,5.5c6.6,3.7,11.5,8.4,14.7,14.1c3.2,5.7,5.3,11.8,6.1,18.4c0.8,6.6,1.2,12.7,1.2,18.5h-31.9
		c0-11.5-1.4-19.9-4.1-25.2c-2.7-5.2-7.7-7.9-15-7.9c-4,0-7.3,1.1-9.9,3.2c-2.6,2.1-4.6,5.6-6.1,10.4c-1.5,4.8-2.5,11.1-3.1,18.8
		c-0.6,7.8-0.9,17.3-0.9,28.5c0,12,0.4,21.6,1.2,29c0.8,7.4,2.1,13.1,3.8,17.2c1.7,4.1,3.8,6.8,6.4,8.2c2.6,1.4,5.6,2.1,9,2.1
		c2.8,0,5.4-0.5,7.9-1.4c2.4-1,4.5-2.9,6.3-5.8c1.8-2.9,3.2-6.9,4.2-12.2c1-5.2,1.6-12.1,1.6-20.7h31.9c0,8.7-0.7,16.9-2,24.5
		c-1.3,7.6-3.8,14.3-7.4,19.9c-3.6,5.7-8.7,10.2-15.3,13.5C773.6,227.4,765.1,229.1,754.6,229.1"/>
	<polygon points="824,68.4 908.4,68.4 908.4,94.6 855.9,94.6 855.9,226.7 824,226.7 	"/>
	<path d="M972,229.1c-12,0-21.5-2-28.6-5.9c-7.1-3.9-12.5-9.5-16.3-16.6c-3.8-7.2-6.2-15.7-7.3-25.7c-1.1-10-1.7-21.1-1.7-33.4
		c0-12,0.6-23,1.7-33.1c1.1-10.1,3.5-18.8,7.3-26c3.8-7.2,9.2-12.9,16.3-17c7.1-4.1,16.6-6.1,28.6-6.1c12,0,21.5,2,28.6,6.1
		c7.1,4.1,12.5,9.7,16.3,17c3.8,7.2,6.2,15.9,7.3,26c1.1,10.1,1.7,21.2,1.7,33.1c0,12.3-0.6,23.4-1.7,33.4
		c-1.1,10-3.5,18.5-7.3,25.7c-3.8,7.2-9.2,12.7-16.3,16.6C993.5,227.1,984,229.1,972,229.1 M972,206.3c4.7,0,8.5-1.1,11.4-3.2
		c2.9-2.1,5.1-5.5,6.6-10.2s2.6-10.7,3.1-18.2c0.5-7.5,0.8-16.5,0.8-27.1c0-10.6-0.3-19.6-0.8-27c-0.5-7.4-1.6-13.4-3.1-18.2
		c-1.6-4.7-3.8-8.2-6.6-10.3c-2.9-2.1-6.7-3.2-11.4-3.2c-4.7,0-8.5,1.1-11.4,3.2c-2.9,2.1-5.1,5.6-6.6,10.3
		c-1.6,4.7-2.6,10.8-3.1,18.2c-0.5,7.4-0.8,16.4-0.8,27c0,10.6,0.3,19.7,0.8,27.1c0.5,7.5,1.6,13.5,3.1,18.2
		c1.6,4.7,3.8,8.1,6.6,10.2C963.5,205.2,967.3,206.3,972,206.3"/>
	<path d="M1044.7,68.4h55.8c8.1,0,15,1.4,20.5,4.1c5.5,2.7,10,6.3,13.4,10.7c3.4,4.4,5.8,9.5,7.3,15.2c1.5,5.7,2.2,11.5,2.2,17.4
		c0,8.3-1.2,15.4-3.7,21.4c-2.4,6-5.8,10.9-10.2,14.7c-4.4,3.8-9.6,6.7-15.8,8.6c-6.2,1.9-13.1,2.9-20.6,2.9h-17.1v63.2h-31.9V68.4z
		 M1090.8,140c6.4,0,11.5-1.9,15.4-5.8c3.9-3.8,5.9-9.8,5.9-17.9c0-8-1.7-14-5.1-18.2c-3.4-4.1-9.1-6.2-17.1-6.2h-13.3V140H1090.8z"
		/>
	<polygon points="1159.7,68.4 1191.6,68.4 1191.6,131.8 1192,131.8 1232.4,68.4 1267,68.4 1224,136.2 1271.8,226.7 1235.9,226.7 
		1203.3,161.7 1191.6,179.7 1191.6,226.7 1159.7,226.7 	"/>
	<path d="M1309.5,68.4h39.4l41.9,158.2h-33.2l-7.3-33.5h-42.1l-7.3,33.5h-33.2L1309.5,68.4z M1344.7,167l-15.3-71.1h-0.4l-15.3,71.1
		H1344.7z"/>
	<polygon points="1401.9,68.4 1433.8,68.4 1433.8,128.9 1471.1,128.9 1471.1,68.4 1503,68.4 1503,226.7 1471.1,226.7 1471.1,156.4 
		1433.8,156.4 1433.8,226.7 1401.9,226.7 	"/>
	<path d="M1555.9,68.4h39.4l41.9,158.2H1604l-7.3-33.5h-42.1l-7.3,33.5H1514L1555.9,68.4z M1591.2,167l-15.3-71.1h-0.4l-15.3,71.1
		H1591.2z"/>
	<path d="M1651,228c-2.1,0-4.5-0.1-7.4-0.4c-2.9-0.3-5-0.6-6.3-0.9v-27.3c0.7,0.1,1.6,0.3,2.5,0.3c1,0.1,1.6,0.1,1.9,0.1
		c2.5,0,4.8-0.2,7-0.6c2.1-0.4,4.1-1.8,5.8-4.2c1.7-2.4,3.2-6.3,4.4-11.6c1.3-5.3,2.3-12.9,3.1-22.6c0.8-9.8,1.4-22.1,1.9-37.1
		c0.4-15,0.7-33.4,0.7-55.3h90.2v158.2h-31.9V94.6h-28.1c0,18.6-0.3,34.9-0.8,48.8c-0.5,13.9-1.4,25.8-2.5,35.7
		c-1.2,9.9-2.8,18-5,24.4c-2.1,6.4-4.8,11.3-8.1,15c-3.3,3.6-7.1,6.1-11.6,7.5C1662.1,227.3,1656.9,228,1651,228"/>
	<path class="st2" d="M418.1,321.2v-2.5l15.4-40.5h7.3l15.4,40.5v2.5h-7.3l-3.8-10.6h-16.2l-3.9,10.6H418.1z M431,304.5h11.8
		l-5.8-16.4L431,304.5z"/>
	<path class="st2" d="M462.8,321.2v-43h18.1c3.9,0,6.9,1,9.1,3c2.1,2,3.2,4.8,3.2,8.6c0,4.4-1.7,7.4-5.2,9.2
		c4.5,1.6,6.8,5.1,6.8,10.4c0,3.9-1.1,6.8-3.2,8.9c-2.1,2-5.2,3-9.1,3H462.8z M470.1,296.7h9.5c4,0,6.1-2,6.1-6c0-4-2-6-6.1-6h-9.5
		V296.7z M470.1,314.8h11.2c4.1,0,6.1-2,6.1-5.9c0-4-2-6.1-6.1-6.1h-11.2V314.8z"/>
	<path class="st2" d="M499.1,321.2v-2.5l15.4-40.5h7.3l15.4,40.5v2.5h-7.3l-3.8-10.6h-16.2l-3.9,10.6H499.1z M512,304.5h11.8
		l-5.8-16.4L512,304.5z"/>
	<path class="st2" d="M543.8,321.2v-43h18.6c3.8,0,6.7,1.2,8.9,3.6c2.1,2.4,3.2,5.6,3.2,9.7c0,4.1-1.1,7.3-3.2,9.6
		c-2.1,2.4-5.1,3.6-8.9,3.6h-11.2v16.6H543.8z M551.2,298.2h10c1.7,0,3.2-0.6,4.2-1.8c1.1-1.2,1.6-2.8,1.6-5s-0.5-3.8-1.6-5
		c-1.1-1.2-2.5-1.8-4.2-1.8h-10V298.2z"/>
	<polygon class="st2" points="582.8,321.2 582.8,278.2 590.1,278.2 590.1,308.1 608.8,278.2 615.6,278.2 615.6,321.2 608.2,321.2 
		608.2,291.5 589.5,321.2 	"/>
	<path class="st2" d="M626.6,321.2v-43h7.4v29.8l18.7-29.8h6.7v43H652v-29.8l-18.6,29.8H626.6z M633.1,267.5v-0.8h5.8v0.6
		c0,1,0.3,1.8,1,2.3c0.7,0.6,1.7,0.8,3.1,0.8c2.8,0,4.2-1.1,4.2-3.2v-0.6h5.7v0.8c0,2.6-0.9,4.6-2.7,6c-1.8,1.4-4.2,2.2-7.2,2.2
		c-3,0-5.4-0.7-7.2-2.2C634,272,633.1,270,633.1,267.5"/>
	<polygon class="st2" points="670.4,321.2 670.4,278.2 677.8,278.2 677.8,296.5 695.6,296.5 695.6,278.2 703,278.2 703,321.2 
		695.6,321.2 695.6,303 677.8,303 677.8,321.2 	"/>
	<path class="st2" d="M714,321.2v-43h7.4v16.6h11.2c3.8,0,6.7,1.2,8.9,3.6c2.1,2.4,3.2,5.6,3.2,9.7c0,4.1-1.1,7.3-3.2,9.6
		c-2.1,2.4-5.1,3.6-8.9,3.6H714z M721.4,314.8h10c1.7,0,3.2-0.6,4.2-1.8c1.1-1.2,1.6-2.8,1.6-5c0-2.1-0.5-3.8-1.6-5
		c-1.1-1.2-2.5-1.8-4.2-1.8h-10V314.8z M750.2,278.2h7.3v43h-7.3V278.2z"/>
	<path class="st2" d="M768.5,321.2v-43h7.4v29.8l18.7-29.8h6.7v43H794v-29.8l-18.7,29.8H768.5z M775,267.5v-0.8h5.8v0.6
		c0,1,0.3,1.8,1,2.3c0.7,0.6,1.7,0.8,3.1,0.8c2.8,0,4.2-1.1,4.2-3.2v-0.6h5.7v0.8c0,2.6-0.9,4.6-2.7,6c-1.8,1.4-4.2,2.2-7.2,2.2
		c-3,0-5.4-0.7-7.2-2.2C775.9,272,775,270,775,267.5"/>
	<path class="st2" d="M827.1,321.2v-43h18.1c3.9,0,6.9,1,9.1,3c2.1,2,3.2,4.8,3.2,8.6c0,4.4-1.7,7.4-5.2,9.2
		c4.5,1.6,6.8,5.1,6.8,10.4c0,3.9-1.1,6.8-3.2,8.9c-2.1,2-5.2,3-9.1,3H827.1z M834.5,296.7h9.5c4,0,6.1-2,6.1-6c0-4-2-6-6.1-6h-9.5
		V296.7z M834.5,314.8h11.2c4.1,0,6.1-2,6.1-5.9c0-4-2-6.1-6.1-6.1h-11.2V314.8z"/>
	<path class="st2" d="M867.7,321.2v-43h7.4v16.6h11.2c3.8,0,6.7,1.2,8.9,3.6c2.1,2.4,3.2,5.6,3.2,9.7c0,4.1-1.1,7.3-3.2,9.6
		c-2.1,2.4-5.1,3.6-8.9,3.6H867.7z M875.1,314.8h10c1.7,0,3.2-0.6,4.2-1.8s1.6-2.8,1.6-5c0-2.1-0.5-3.8-1.6-5
		c-1.1-1.2-2.5-1.8-4.2-1.8h-10V314.8z M903.9,278.2h7.3v43h-7.3V278.2z"/>
	<path class="st2" d="M919.8,307.3h7.4c0,2.6,0.9,4.6,2.6,6c1.8,1.4,4.1,2.1,6.9,2.1c2.6,0,4.5-0.6,5.8-1.7c1.3-1.1,2-2.7,2-4.8
		c0-2-0.7-3.5-2-4.6c-1.3-1.1-3.2-1.6-5.7-1.6h-5.7v-6.1h5.7c2.1,0,3.7-0.5,4.9-1.6c1.2-1,1.8-2.5,1.8-4.3c0-2-0.7-3.6-2-4.8
		c-1.3-1.2-3.1-1.8-5.4-1.8c-2.4,0-4.4,0.7-5.8,2.1c-1.5,1.4-2.2,3.4-2.2,6h-7.4c0-4.9,1.4-8.6,4.3-11.1c2.9-2.5,6.5-3.7,11-3.7
		c4.6,0,8.2,1.1,10.9,3.4c2.6,2.3,4,5.3,4,9.1c0,4.2-1.9,7.4-5.8,9.5c2.1,0.8,3.8,1.9,5,3.6c1.2,1.6,1.8,3.6,1.8,6
		c0,4.1-1.4,7.3-4.1,9.7c-2.8,2.4-6.6,3.6-11.4,3.6c-4.8,0-8.8-1.2-11.9-3.7C921.4,315.9,919.8,312.2,919.8,307.3"/>
	<path class="st2" d="M959.3,306.7v-13.9c0-4.8,1.5-8.6,4.5-11.3c3-2.7,7.2-4.1,12.4-4.1c5.2,0,9.3,1.4,12.3,4.1
		c3,2.7,4.5,6.5,4.5,11.3v13.9c0,4.8-1.5,8.6-4.5,11.3c-3,2.7-7.1,4.1-12.3,4.1c-5.2,0-9.3-1.4-12.4-4.1
		C960.8,315.3,959.3,311.5,959.3,306.7 M966.7,307.1c0,2.5,0.8,4.5,2.5,6c1.7,1.5,4,2.3,7,2.3c3,0,5.3-0.8,7-2.3
		c1.7-1.5,2.5-3.5,2.5-6v-14.6c0-2.5-0.8-4.5-2.5-6c-1.7-1.5-4-2.3-7-2.3c-3,0-5.3,0.8-7,2.3c-1.7,1.5-2.5,3.5-2.5,6V307.1z"/>
	<path class="st2" d="M1002.9,321.2v-43h18.1c3.9,0,6.9,1,9.1,3c2.1,2,3.2,4.8,3.2,8.6c0,4.4-1.7,7.4-5.2,9.2
		c4.5,1.6,6.8,5.1,6.8,10.4c0,3.9-1.1,6.8-3.2,8.9c-2.1,2-5.2,3-9.1,3H1002.9z M1010.3,296.7h9.5c4,0,6.1-2,6.1-6c0-4-2-6-6.1-6
		h-9.5V296.7z M1010.3,314.8h11.2c4.1,0,6.1-2,6.1-5.9c0-4-2-6.1-6.1-6.1h-11.2V314.8z"/>
	<rect x="1073" y="278.2" class="st2" width="7.4" height="43"/>
	<polygon class="st2" points="1115.9,280.7 1115.9,278.2 1123.2,278.2 1133.8,300.4 1143.4,278.2 1150.2,278.2 1150.2,280.7 
		1132.1,321.2 1125.4,321.2 1125.4,318.8 1130,308.7 	"/>
	<path class="st2" d="M1155.1,306.7v-13.9c0-4.9,1.5-8.7,4.4-11.4c2.9-2.7,7-4,12.3-4c4.6,0,8.3,1.2,11.3,3.7
		c3,2.6,4.6,6.3,4.6,11.1v0.6h-7.4v-0.6c0-2.7-0.9-4.7-2.6-6c-1.8-1.4-3.7-2.1-5.9-2.1c-3.1,0-5.4,0.7-6.9,2.1
		c-1.6,1.4-2.3,3.4-2.3,6.1v14.9c0,2.6,0.8,4.7,2.3,6.1c1.6,1.4,3.9,2.1,6.9,2.1c2.2,0,4.1-0.7,5.9-2c1.8-1.4,2.6-3.4,2.6-6.1v-0.6
		h7.4v0.6c0,4.9-1.5,8.6-4.6,11.1c-3,2.5-6.7,3.7-11.3,3.7c-5.3,0-9.4-1.4-12.3-4C1156.6,315.4,1155.1,311.6,1155.1,306.7"/>
	<path class="st2" d="M1191.9,321.2v-6.7h1.2c2.6,0,4.4-1.1,5.4-3.3c1-2.3,1.5-6.3,1.5-12.1v-20.8h26.8v43h-7.4v-36.5h-12.7v16.5
		c0,13.4-4.5,20-13.4,20H1191.9z"/>
	<polygon class="st2" points="1233,280.7 1233,278.2 1240.3,278.2 1250.8,300.4 1260.4,278.2 1267.3,278.2 1267.3,280.7 
		1249.1,321.2 1242.4,321.2 1242.4,318.8 1247,308.7 	"/>
	<polygon class="st2" points="1273.4,321.2 1273.4,278.2 1300.1,278.2 1300.1,284.7 1280.8,284.7 1280.8,321.2 	"/>
	<polygon class="st2" points="1308.1,321.2 1308.1,278.2 1315.5,278.2 1315.5,308.1 1334.2,278.2 1340.9,278.2 1340.9,321.2 
		1333.5,321.2 1333.5,291.5 1314.9,321.2 	"/>
	<path class="st2" d="M1365.4,306.7v-13.9c0-4.9,1.5-8.7,4.4-11.4c2.9-2.7,7-4,12.3-4c4.6,0,8.3,1.2,11.3,3.7
		c3,2.6,4.6,6.3,4.6,11.1v0.6h-7.4v-0.6c0-2.7-0.9-4.7-2.6-6c-1.8-1.4-3.7-2.1-5.9-2.1c-3.1,0-5.4,0.7-6.9,2.1
		c-1.6,1.4-2.3,3.4-2.3,6.1v14.9c0,2.6,0.8,4.7,2.3,6.1c1.6,1.4,3.9,2.1,6.9,2.1c2.2,0,4.1-0.7,5.9-2c1.8-1.4,2.6-3.4,2.6-6.1v-0.6
		h7.4v0.6c0,4.9-1.5,8.6-4.6,11.1c-3,2.5-6.7,3.7-11.3,3.7c-5.3,0-9.4-1.4-12.3-4C1366.9,315.4,1365.4,311.6,1365.4,306.7"/>
	<path class="st2" d="M1402.9,321.2v-2.5l15.4-40.5h7.3l15.4,40.5v2.5h-7.3l-3.8-10.6h-16.2l-3.9,10.6H1402.9z M1415.8,304.5h11.8
		l-5.8-16.4L1415.8,304.5z"/>
	<polygon class="st2" points="1447.6,321.2 1447.6,278.2 1454.9,278.2 1454.9,296.5 1472.7,296.5 1472.7,278.2 1480.1,278.2 
		1480.1,321.2 1472.7,321.2 1472.7,303 1454.9,303 1454.9,321.2 	"/>
	<polygon class="st2" points="1486.9,284.7 1486.9,278.2 1519.2,278.2 1519.2,284.7 1506.7,284.7 1506.7,321.2 1499.3,321.2 
		1499.3,284.7 	"/>
	<polygon class="st2" points="1525.9,321.2 1525.9,278.2 1553.5,278.2 1553.5,284.7 1533.3,284.7 1533.3,296.6 1550.6,296.6 
		1550.6,302.8 1533.3,302.8 1533.3,314.8 1553.6,314.8 1553.6,321.2 	"/>
	<polygon class="st2" points="1558.4,321.2 1558.4,318.8 1571.9,299 1559.5,280.7 1559.5,278.2 1567,278.2 1576.5,293.2 
		1586.4,278.2 1593.5,278.2 1593.5,280.7 1581,299 1594.6,318.8 1594.6,321.2 1587.1,321.2 1576.3,304.9 1565.5,321.2 	"/>
	<polygon class="st2" points="1601.9,321.2 1601.9,278.2 1609.3,278.2 1609.3,296.5 1627.1,296.5 1627.1,278.2 1634.5,278.2 
		1634.5,321.2 1627.1,321.2 1627.1,303 1609.3,303 1609.3,321.2 	"/>
	<polygon class="st2" points="1645.5,321.2 1645.5,278.2 1652.9,278.2 1652.9,308.1 1671.6,278.2 1678.3,278.2 1678.3,321.2 
		1670.9,321.2 1670.9,291.5 1652.3,321.2 	"/>
	<polygon class="st2" points="1689.3,321.2 1689.3,278.2 1696.7,278.2 1696.7,296.5 1702.2,296.5 1713.4,278.2 1720.2,278.2 
		1720.2,280.7 1708.6,299.3 1721.1,318.8 1721.1,321.2 1713.8,321.2 1702.2,303 1696.7,303 1696.7,321.2 	"/>
	<path class="st2" d="M1723.6,321.2v-2.5l15.4-40.5h7.3l15.4,40.5v2.5h-7.3l-3.8-10.6h-16.2l-3.9,10.6H1723.6z M1736.5,304.5h11.8
		l-5.8-16.4L1736.5,304.5z"/>
</g>
</svg>
