<svg version="1.1" xmlns="http://www.w3.org/2000/svg" xmlns:xlink="http://www.w3.org/1999/xlink" x="0px" y="0px" viewBox="0 0 330 135" xml:space="preserve" width="100%" height="100%">
<style type="text/css">.st__0{fill:#869092;}.st__1{fill:#1C6298;}</style>
<g id="logo-cap1">
	<polygon class="st__0" points="121.5,4.5 121.5,73.3 158.5,73.3 158.5,64.8 130.3,64.8 130.3,12.8 158.5,12.8 158.5,4.5 	"></polygon>
</g>
<g id="logo-cap2">
	<polygon class="st__1" points="199,4.5 199,73.3 162,73.3 162,64.8 190.3,64.8 190.3,12.8 162,12.8 162,4.5 	"></polygon>
</g>
<g id="logo-cap5">
	<g>
		<path class="st__1" d="M163.1,27c3.4,0,5.9,0.7,7.3,2c1.5,1.4,2.2,3.4,2.2,6.2v2.4c0,2.8-1.1,4.9-3.2,6.4c2.3,1.3,3.4,3.5,3.4,6.5
			v2.9c0,1.3-0.1,2.5-0.4,3.6c-0.3,1.1-0.8,2-1.5,2.7c-0.7,0.8-1.6,1.3-2.7,1.7c-1.1,0.4-2.5,0.6-4.2,0.6h-29.7
			c-1,0-1.5-0.5-1.5-1.5v-32c0-1,0.5-1.5,1.5-1.5H163.1z M140.5,41.5H161c1.7,0,2.8-0.3,3.4-0.8s0.9-1.2,0.9-2.2v-1.7
			c0-1-0.3-1.8-0.9-2.3c-0.6-0.5-1.5-0.7-2.8-0.7h-20.4c-0.4,0-0.6,0.2-0.6,0.6V41.5z M140.5,47v7.5c0,0.4,0.2,0.6,0.6,0.6h20.5
			c1.3,0,2.3-0.2,2.9-0.7c0.6-0.5,0.8-1.3,0.8-2.3v-1.9c0-1-0.3-1.8-0.9-2.4c-0.6-0.5-1.8-0.8-3.4-0.8H140.5z"></path>
	</g>
</g>
<g id="logo-cap7">
	<polygon class="st__0" points="147.8,51.4 155.5,51.4 155.5,33.9 147.8,33.9 	"></polygon>
</g>
<g id="logo-cap8">
	<polygon class="st__0" points="147.8,27.1 147.8,16.4 186.5,16.4 186.5,51.4 178.8,51.4 178.8,24.6 155.5,24.6 155.5,27.1 	"></polygon>
</g>
<g id="logo-cap9">
	<g>
		<g>
			<path class="st__1" d="M25.5,84.7c2.4,0,4.1,0.5,5.1,1.4c1,1,1.5,2.4,1.5,4.3v1.7c0,2-0.7,3.4-2.2,4.4c1.6,0.9,2.4,2.4,2.4,4.5v2
				c0,0.9-0.1,1.8-0.3,2.5c-0.2,0.7-0.6,1.4-1,1.9c-0.5,0.5-1.1,0.9-1.9,1.2c-0.8,0.3-1.8,0.4-2.9,0.4H5.4c-0.7,0-1-0.3-1-1V85.7
				c0-0.7,0.4-1,1-1H25.5z M9.7,94.9H24c1.2,0,2-0.2,2.4-0.5c0.4-0.4,0.6-0.9,0.6-1.5v-1.2c0-0.7-0.2-1.3-0.6-1.6
				c-0.4-0.3-1.1-0.5-2-0.5H10.1c-0.3,0-0.5,0.2-0.5,0.5V94.9z M9.7,98.7v5.2c0,0.3,0.2,0.5,0.5,0.5h14.4c0.9,0,1.6-0.2,2-0.5
				c0.4-0.3,0.6-0.9,0.6-1.6v-1.3c0-0.7-0.2-1.3-0.6-1.6c-0.4-0.4-1.2-0.6-2.4-0.6H9.7z"></path>
			<path class="st__1" d="M56.8,84.7c1.8,0,3.3,0.2,4.5,0.5c1.2,0.3,2.3,0.9,3,1.6c0.8,0.7,1.3,1.7,1.7,2.9c0.4,1.2,0.5,2.6,0.5,4.3v6
				c0,1.7-0.2,3.1-0.5,4.3c-0.4,1.2-0.9,2.1-1.7,2.9c-0.8,0.7-1.8,1.3-3,1.6c-1.2,0.3-2.8,0.5-4.5,0.5H46c-1.8,0-3.3-0.2-4.5-0.5
				c-1.2-0.3-2.2-0.9-3-1.6c-0.8-0.7-1.4-1.7-1.7-2.9c-0.4-1.2-0.5-2.6-0.5-4.3v-6c0-1.7,0.2-3.1,0.5-4.3c0.4-1.2,0.9-2.1,1.7-2.9
				c0.8-0.7,1.8-1.3,3-1.6c1.2-0.3,2.7-0.5,4.5-0.5H56.8z M41.5,99.5c0,0.9,0.1,1.7,0.2,2.3s0.4,1.1,0.8,1.5
				c0.3,0.4,0.8,0.6,1.4,0.8c0.6,0.2,1.3,0.2,2.3,0.2h10.4c0.9,0,1.7-0.1,2.3-0.2c0.6-0.2,1.1-0.4,1.4-0.8c0.4-0.4,0.6-0.9,0.8-1.5
				s0.2-1.4,0.2-2.3v-5.3c0-0.9-0.1-1.7-0.2-2.3c-0.2-0.6-0.4-1.1-0.8-1.5c-0.4-0.4-0.8-0.6-1.4-0.8c-0.6-0.2-1.3-0.2-2.3-0.2H46.2
				c-0.9,0-1.7,0.1-2.3,0.2c-0.6,0.2-1.1,0.4-1.4,0.8c-0.4,0.4-0.6,0.9-0.8,1.5c-0.2,0.6-0.2,1.4-0.2,2.3V99.5z"></path>
			<path class="st__1" d="M104.6,105c0-0.5-0.3-0.8-0.8-0.8h-5.1V87.6c0-1-0.2-1.8-0.7-2.3c-0.5-0.5-1.3-0.7-2.5-0.7H82.4
				c-1.1,0-1.9,0.3-2.3,0.8c-0.4,0.5-0.7,1.3-0.8,2.2c-0.2,1.8-0.4,3.4-0.6,4.8c-0.2,1.4-0.3,2.6-0.5,3.7c-0.2,1.1-0.3,2.1-0.5,2.9
				c-0.2,0.8-0.4,1.6-0.6,2.2c-0.4,1.1-0.7,1.8-1.2,2.2c-0.4,0.4-0.9,0.6-1.4,0.6h-4.8c-0.5,0-0.8,0.3-0.8,0.8v4.2
				c0.2,0.1,0.5,0.2,0.7,0.3c1.3,0,2.7,0,4.1,0v-0.3h26v0.3c1.7,0,3.2,0,4.8,0V105z M93.4,104.2H81.1c0.3-0.9,0.5-1.9,0.8-3
				c0.2-1.1,0.4-2.2,0.6-3.4c0.2-1.2,0.4-2.4,0.5-3.6c0.2-1.2,0.3-2.3,0.4-3.4c0-0.3,0.1-0.5,0.2-0.8s0.4-0.3,0.8-0.3h8.3
				c0.5,0,0.7,0.2,0.7,0.7V104.2z"></path>
			<path class="st__1" d="M136.8,89.6c-0.4-1.2-0.9-2.1-1.7-2.9c-0.8-0.7-1.8-1.3-3-1.6c-1.2-0.3-2.8-0.5-4.5-0.5h-10.8
				c-1.8,0-3.3,0.2-4.5,0.5c-1.2,0.3-2.2,0.9-3,1.6c-0.8,0.7-1.4,1.7-1.7,2.9c-0.4,1.2-0.5,2.6-0.5,4.3v6c0,1.7,0.2,3.1,0.5,4.3
				c0.4,1.2,0.9,2.1,1.7,2.9c0.8,0.7,1.8,1.3,3,1.6c1.2,0.3,2.7,0.5,4.5,0.5h10.8c1.8,0,3.3-0.2,4.5-0.5c1.2-0.3,2.3-0.9,3-1.6
				c0.8-0.7,1.3-1.7,1.7-2.9c0.4-1.2,0.5-2.6,0.5-4.3v-6C137.3,92.2,137.1,90.8,136.8,89.6z M132,99.5c0,0.9-0.1,1.7-0.2,2.3
				s-0.4,1.1-0.8,1.5c-0.4,0.4-0.8,0.6-1.4,0.8c-0.6,0.2-1.3,0.2-2.3,0.2h-10.4c-0.9,0-1.7-0.1-2.3-0.2c-0.6-0.2-1.1-0.4-1.4-0.8
				c-0.4-0.4-0.6-0.9-0.8-1.5s-0.2-1.4-0.2-2.3v-5.3c0-0.9,0.1-1.7,0.2-2.3c0.2-0.6,0.4-1.1,0.8-1.5c0.3-0.4,0.8-0.6,1.4-0.8
				c0.6-0.2,1.3-0.2,2.3-0.2h10.4c0.9,0,1.7,0.1,2.3,0.2c0.6,0.2,1.1,0.4,1.4,0.8c0.4,0.4,0.6,0.9,0.8,1.5c0.2,0.6,0.2,1.4,0.2,2.3
				V99.5z"></path>
		</g>
	</g>
</g>
<g id="logo-cap10">
	<g>
		<g>
			<path class="st__0" d="M167.8,84.7c1.2,0,2,0.2,2.5,0.7c0.5,0.5,0.7,1.2,0.7,2.3v20.8c0,0.5-0.3,0.8-0.8,0.8h-3.8
				c-0.5,0-0.8-0.3-0.8-0.8v-18c0-0.5-0.2-0.7-0.7-0.7h-14.9c-0.5,0-0.7,0.2-0.7,0.7v18c0,0.5-0.3,0.8-0.8,0.8h-3.8
				c-0.5,0-0.8-0.3-0.8-0.8V87.6c0-1,0.2-1.8,0.7-2.3c0.5-0.5,1.3-0.7,2.5-0.7H167.8z"></path>
			<path class="st__0" d="M195.5,84.7c2.7,0,4.6,0.6,5.8,1.8c1.2,1.2,1.8,3,1.8,5.4v2.6c0,2.4-0.6,4.2-1.8,5.4s-3.1,1.8-5.8,1.8H181
				v6.7c0,0.5-0.3,0.8-0.8,0.8h-3.8c-0.5,0-0.8-0.3-0.8-0.8V85.7c0-0.7,0.4-1,1.1-1H195.5z M181,97.1h13.4c1.2,0,2-0.3,2.5-0.8
				c0.5-0.5,0.7-1.3,0.7-2.3v-1.3c0-1-0.2-1.8-0.7-2.3c-0.5-0.5-1.3-0.8-2.5-0.8h-13c-0.3,0-0.5,0.1-0.5,0.4V97.1z"></path>
			<path class="st__0" d="M226.9,84.7c1.8,0,3.3,0.2,4.5,0.5c1.2,0.3,2.3,0.9,3,1.6c0.8,0.7,1.3,1.7,1.7,2.9s0.5,2.6,0.5,4.3v6
				c0,1.7-0.2,3.1-0.5,4.3c-0.3,1.2-0.9,2.1-1.7,2.9c-0.8,0.7-1.8,1.3-3,1.6c-1.2,0.3-2.8,0.5-4.5,0.5H216c-1.8,0-3.3-0.2-4.5-0.5
				c-1.2-0.3-2.2-0.9-3-1.6c-0.8-0.7-1.4-1.7-1.7-2.9c-0.4-1.2-0.5-2.6-0.5-4.3v-6c0-1.7,0.2-3.1,0.5-4.3s0.9-2.1,1.7-2.9
				c0.8-0.7,1.8-1.3,3-1.6c1.2-0.3,2.7-0.5,4.5-0.5H226.9z M211.6,99.5c0,0.9,0.1,1.7,0.2,2.3s0.4,1.1,0.8,1.5
				c0.3,0.4,0.8,0.6,1.4,0.8c0.6,0.2,1.3,0.2,2.3,0.2h10.4c0.9,0,1.7-0.1,2.3-0.2c0.6-0.2,1.1-0.4,1.4-0.8c0.3-0.4,0.6-0.9,0.8-1.5
				s0.2-1.4,0.2-2.3v-5.3c0-0.9-0.1-1.7-0.2-2.3s-0.4-1.1-0.8-1.5c-0.4-0.4-0.8-0.6-1.4-0.8c-0.6-0.2-1.3-0.2-2.3-0.2h-10.4
				c-0.9,0-1.7,0.1-2.3,0.2c-0.6,0.2-1.1,0.4-1.4,0.8c-0.4,0.4-0.6,0.9-0.8,1.5s-0.2,1.4-0.2,2.3V99.5z"></path>
			<path class="st__0" d="M266.2,84.7c0.5,0,0.8,0.3,0.8,0.8v3.3c0,0.5-0.3,0.8-0.8,0.8h-19.5c-0.3,0-0.5,0.2-0.5,0.5v4.6H266
				c0.5,0,0.8,0.3,0.8,0.8v2.8c0,0.5-0.3,0.8-0.8,0.8h-19.7v4.8c0,0.3,0.2,0.5,0.5,0.5h19.5c0.5,0,0.8,0.3,0.8,0.8v3.3
				c0,0.5-0.3,0.8-0.8,0.8H243c-0.7,0-1.2-0.1-1.5-0.4c-0.3-0.3-0.5-0.7-0.5-1.4v-21c0-0.5,0.2-0.9,0.5-1.3c0.3-0.3,0.8-0.5,1.5-0.5
				H266.2z"></path>
			<path class="st__0" d="M275.6,84.7c0.5,0,0.8,0.3,0.8,0.8v9.3h2.9c0.6,0,1,0,1.4-0.1c0.4,0,0.7-0.1,1-0.2c0.3-0.1,0.5-0.3,0.8-0.5
				s0.5-0.5,0.7-0.8l6-8c0.1-0.2,0.2-0.3,0.4-0.3c0.1-0.1,0.3-0.1,0.7-0.1h4.3c0.3,0,0.5,0.1,0.5,0.3s0,0.4-0.1,0.5l-6.8,8.8
				c-0.4,0.5-0.8,1-1.1,1.4c-0.3,0.4-0.7,0.7-1,1c0.9,0.6,1.8,1.4,2.7,2.5l7.2,9.1c0.1,0.1,0.1,0.3,0.1,0.5c0,0.2-0.2,0.4-0.6,0.4
				H291c-0.3,0-0.5,0-0.6-0.1c-0.1-0.1-0.2-0.2-0.4-0.3l-6.4-8.3c-0.5-0.6-1-1-1.5-1.2c-0.5-0.2-1.3-0.3-2.4-0.3h-3.3v9.6
				c0,0.5-0.3,0.8-0.8,0.8h-3.8c-0.5,0-0.8-0.3-0.8-0.8v-23c0-0.5,0.3-0.8,0.8-0.8H275.6z"></path>
			<path class="st__0" d="M325.6,84.7c0.5,0,0.8,0.3,0.8,0.8v3.4c0,0.5-0.3,0.8-0.8,0.8h-11v18.7c0,0.5-0.3,0.8-0.8,0.8H310
				c-0.5,0-0.8-0.3-0.8-0.8V89.7h-11c-0.5,0-0.8-0.3-0.8-0.8v-3.4c0-0.5,0.3-0.8,0.8-0.8H325.6z"></path>
		</g>
	</g>
</g>
<g id="logo-cap12">
	<g>
		<path class="st__0" d="M8.6,116.6c0.2,0,0.4,0,0.6,0c0.2,0,0.3,0.1,0.5,0.2c0.1,0.1,0.2,0.2,0.4,0.4c0.1,0.2,0.2,0.4,0.3,0.6
			l3.4,7.8c0,0.1,0.1,0.1,0.2,0.1h0.2c0.1,0,0.2,0,0.2-0.1l3.4-7.8c0.1-0.3,0.2-0.5,0.3-0.6c0.1-0.2,0.2-0.3,0.4-0.4
			c0.1-0.1,0.3-0.2,0.4-0.2c0.2,0,0.4,0,0.6,0h1.7c0.6,0,0.9,0.1,1.1,0.4c0.2,0.3,0.3,0.7,0.3,1.3v9.4c0,0.2-0.1,0.4-0.4,0.4h-1.7
			c-0.2,0-0.4-0.1-0.4-0.4v-8.5c0-0.1,0-0.2-0.1-0.2H20c-0.1,0-0.2,0-0.2,0.1l-3.3,7.3c-0.1,0.3-0.3,0.5-0.4,0.7
			c-0.1,0.2-0.3,0.4-0.4,0.5c-0.2,0.1-0.3,0.2-0.5,0.3c-0.2,0.1-0.4,0.1-0.7,0.1h-0.8c-0.3,0-0.5,0-0.7-0.1
			c-0.2-0.1-0.4-0.1-0.5-0.3c-0.2-0.1-0.3-0.3-0.4-0.5s-0.3-0.4-0.4-0.7l-3.3-7.3c0-0.1-0.1-0.1-0.2-0.1H7.9c-0.1,0-0.1,0.1-0.1,0.2
			v8.5c0,0.2-0.1,0.4-0.4,0.4H5.8c-0.3,0-0.4-0.1-0.4-0.4v-9.4c0-0.6,0.1-1.1,0.3-1.3c0.2-0.3,0.6-0.4,1.2-0.4H8.6z"></path>
		<path class="st__0" d="M36.6,116.6c0.2,0,0.4,0.1,0.4,0.4v1.5c0,0.2-0.1,0.4-0.4,0.4h-9.1c-0.1,0-0.2,0.1-0.2,0.2v2.2h9.2
			c0.3,0,0.4,0.1,0.4,0.4v1.3c0,0.2-0.1,0.4-0.4,0.4h-9.2v2.3c0,0.2,0.1,0.2,0.2,0.2h9.1c0.2,0,0.4,0.1,0.4,0.4v1.5
			c0,0.2-0.1,0.4-0.4,0.4H25.8c-0.3,0-0.5-0.1-0.7-0.2c-0.1-0.1-0.2-0.3-0.2-0.6v-9.8c0-0.2,0.1-0.4,0.2-0.6
			c0.1-0.2,0.4-0.2,0.7-0.2H36.6z"></path>
		<path class="st__0" d="M51.2,116.6c0.3,0,0.4,0.1,0.4,0.4v1.6c0,0.3-0.1,0.4-0.4,0.4h-5.1v8.7c0,0.2-0.1,0.4-0.4,0.4H44
			c-0.2,0-0.4-0.1-0.4-0.4v-8.7h-5.1c-0.3,0-0.4-0.1-0.4-0.4v-1.6c0-0.2,0.1-0.4,0.4-0.4H51.2z"></path>
		<path class="st__0" d="M62.3,116.6c1.2,0,2.1,0.3,2.7,0.8c0.5,0.6,0.8,1.4,0.8,2.5v1.2c0,1.1-0.3,1.9-0.8,2.5
			c-0.5,0.6-1.4,0.8-2.7,0.8h-6.7v3.1c0,0.2-0.1,0.4-0.4,0.4h-1.8c-0.3,0-0.4-0.1-0.4-0.4v-10.6c0-0.3,0.2-0.5,0.5-0.5H62.3z
			 M55.6,122.4h6.2c0.6,0,0.9-0.1,1.2-0.4c0.2-0.2,0.3-0.6,0.3-1.1v-0.6c0-0.5-0.1-0.9-0.3-1.1c-0.2-0.2-0.6-0.4-1.2-0.4h-6
			c-0.1,0-0.2,0.1-0.2,0.2V122.4z"></path>
		<path class="st__0" d="M76.9,116.6c0.8,0,1.5,0.1,2.1,0.2c0.6,0.2,1.1,0.4,1.4,0.8c0.4,0.3,0.6,0.8,0.8,1.3c0.2,0.5,0.2,1.2,0.2,2
			v2.8c0,0.8-0.1,1.4-0.2,2s-0.4,1-0.8,1.3c-0.4,0.3-0.8,0.6-1.4,0.7c-0.6,0.2-1.3,0.2-2.1,0.2h-5c-0.8,0-1.5-0.1-2.1-0.2
			c-0.6-0.2-1-0.4-1.4-0.7c-0.4-0.3-0.6-0.8-0.8-1.3c-0.2-0.5-0.3-1.2-0.3-2v-2.8c0-0.8,0.1-1.4,0.3-2c0.2-0.5,0.4-1,0.8-1.3
			c0.4-0.3,0.8-0.6,1.4-0.8c0.6-0.2,1.3-0.2,2.1-0.2H76.9z M69.8,123.5c0,0.4,0,0.8,0.1,1.1c0.1,0.3,0.2,0.5,0.4,0.7
			c0.2,0.2,0.4,0.3,0.7,0.4c0.3,0.1,0.6,0.1,1.1,0.1h4.8c0.4,0,0.8,0,1.1-0.1c0.3-0.1,0.5-0.2,0.7-0.4c0.2-0.2,0.3-0.4,0.4-0.7
			c0.1-0.3,0.1-0.6,0.1-1.1v-2.4c0-0.4,0-0.8-0.1-1.1c-0.1-0.3-0.2-0.5-0.4-0.7c-0.2-0.2-0.4-0.3-0.7-0.4c-0.3-0.1-0.6-0.1-1.1-0.1
			H72c-0.4,0-0.8,0-1.1,0.1c-0.3,0.1-0.5,0.2-0.7,0.4c-0.2,0.2-0.3,0.4-0.4,0.7c-0.1,0.3-0.1,0.6-0.1,1.1V123.5z"></path>
		<path class="st__0" d="M94,116.6c0.5,0,0.9,0.1,1.2,0.3c0.2,0.2,0.3,0.6,0.3,1.1v9.7c0,0.2-0.1,0.4-0.4,0.4h-1.8
			c-0.2,0-0.4-0.1-0.4-0.4v-8.4c0-0.2-0.1-0.3-0.3-0.3h-3.8c-0.2,0-0.3,0.1-0.4,0.2c0,0.1-0.1,0.2-0.1,0.3c-0.1,0.5-0.1,1.1-0.2,1.7
			c-0.1,0.6-0.2,1.2-0.3,1.8c-0.1,0.6-0.2,1.1-0.3,1.7s-0.2,1-0.4,1.4c-0.2,0.7-0.5,1.2-0.9,1.5s-1,0.5-1.7,0.5H83
			c-0.3,0-0.4-0.1-0.4-0.4V126c0-0.2,0.1-0.4,0.4-0.4h1.2c0.2,0,0.5-0.1,0.7-0.3c0.2-0.2,0.4-0.5,0.6-1c0.1-0.3,0.2-0.7,0.3-1
			s0.2-0.8,0.2-1.4c0.1-0.5,0.2-1.1,0.2-1.7c0.1-0.7,0.2-1.4,0.3-2.3c0-0.4,0.2-0.8,0.4-1c0.2-0.3,0.6-0.4,1.1-0.4H94z"></path>
		<path class="st__0" d="M107.1,116.6c0.8,0,1.5,0.1,2.1,0.2c0.6,0.2,1.1,0.4,1.4,0.8c0.4,0.3,0.6,0.8,0.8,1.3c0.2,0.5,0.2,1.2,0.2,2
			v2.8c0,0.8-0.1,1.4-0.2,2s-0.4,1-0.8,1.3c-0.4,0.3-0.8,0.6-1.4,0.7c-0.6,0.2-1.3,0.2-2.1,0.2h-5c-0.8,0-1.5-0.1-2.1-0.2
			c-0.6-0.2-1-0.4-1.4-0.7c-0.4-0.3-0.6-0.8-0.8-1.3c-0.2-0.5-0.3-1.2-0.3-2v-2.8c0-0.8,0.1-1.4,0.3-2c0.2-0.5,0.4-1,0.8-1.3
			c0.4-0.3,0.8-0.6,1.4-0.8c0.6-0.2,1.3-0.2,2.1-0.2H107.1z M100,123.5c0,0.4,0,0.8,0.1,1.1c0.1,0.3,0.2,0.5,0.4,0.7
			c0.2,0.2,0.4,0.3,0.7,0.4c0.3,0.1,0.6,0.1,1.1,0.1h4.8c0.4,0,0.8,0,1.1-0.1c0.3-0.1,0.5-0.2,0.7-0.4c0.2-0.2,0.3-0.4,0.4-0.7
			c0.1-0.3,0.1-0.6,0.1-1.1v-2.4c0-0.4,0-0.8-0.1-1.1c-0.1-0.3-0.2-0.5-0.4-0.7c-0.2-0.2-0.4-0.3-0.7-0.4c-0.3-0.1-0.6-0.1-1.1-0.1
			h-4.8c-0.4,0-0.8,0-1.1,0.1c-0.3,0.1-0.5,0.2-0.7,0.4c-0.2,0.2-0.3,0.4-0.4,0.7c-0.1,0.3-0.1,0.6-0.1,1.1V123.5z"></path>
		<path class="st__0" d="M125,116.6c0.2,0,0.4,0.1,0.4,0.4v1.6c0,0.3-0.1,0.4-0.4,0.4h-6.6c-0.4,0-0.8,0-1.1,0.1
			c-0.3,0.1-0.5,0.2-0.7,0.4c-0.2,0.2-0.3,0.4-0.4,0.7c-0.1,0.3-0.1,0.6-0.1,1.1v6.5c0,0.2-0.1,0.4-0.4,0.4h-1.8
			c-0.3,0-0.4-0.1-0.4-0.4v-6.7c0-0.8,0.1-1.4,0.3-2c0.2-0.5,0.4-1,0.8-1.3c0.4-0.3,0.8-0.6,1.4-0.8c0.6-0.2,1.3-0.2,2.1-0.2H125z"></path>
		<path class="st__0" d="M128.9,116.6c0.2,0,0.4,0.1,0.4,0.4v8.5c0,0.1,0,0.2,0.1,0.2h0.1c0.1,0,0.2,0,0.2-0.1l4.8-8
			c0.1-0.2,0.2-0.4,0.3-0.5c0.1-0.1,0.2-0.2,0.4-0.3c0.1-0.1,0.3-0.1,0.5-0.1c0.2,0,0.4,0,0.7,0h1.4c0.5,0,0.9,0.1,1.1,0.4
			c0.2,0.2,0.4,0.7,0.4,1.3v9.4c0,0.2-0.1,0.4-0.4,0.4h-1.8c-0.2,0-0.4-0.1-0.4-0.4v-8.5c0-0.1,0-0.2-0.1-0.2h-0.1
			c-0.1,0-0.2,0-0.2,0.1l-4.9,8c-0.1,0.2-0.2,0.4-0.3,0.5c-0.1,0.1-0.2,0.2-0.4,0.3s-0.3,0.1-0.5,0.2c-0.2,0-0.4,0-0.7,0h-1.4
			c-0.5,0-0.9-0.1-1.1-0.4c-0.2-0.2-0.4-0.7-0.4-1.3v-9.4c0-0.2,0.1-0.4,0.4-0.4H128.9z"></path>
		<path class="st__0" d="M143.6,116.6c0.2,0,0.4,0.1,0.4,0.4v3c0,0.4,0,0.8,0.1,1.1c0.1,0.3,0.2,0.5,0.4,0.7c0.2,0.2,0.4,0.3,0.7,0.4
			c0.3,0.1,0.6,0.1,1.1,0.1h5.6v-5.3c0-0.2,0.1-0.4,0.4-0.4h1.8c0.2,0,0.4,0.1,0.4,0.4v10.7c0,0.2-0.1,0.4-0.4,0.4h-1.8
			c-0.2,0-0.4-0.1-0.4-0.4v-3.2h-5.7c-0.8,0-1.5-0.1-2.1-0.2c-0.6-0.2-1-0.4-1.4-0.7c-0.4-0.3-0.6-0.8-0.8-1.3
			c-0.2-0.5-0.3-1.2-0.3-2v-3.1c0-0.2,0.1-0.4,0.4-0.4H143.6z"></path>
		<path class="st__0" d="M168.1,116.6c0.2,0,0.4,0.1,0.4,0.4v1.5c0,0.2-0.1,0.4-0.4,0.4H159c-0.1,0-0.2,0.1-0.2,0.2v2.2h9.2
			c0.3,0,0.4,0.1,0.4,0.4v1.3c0,0.2-0.1,0.4-0.4,0.4h-9.2v2.3c0,0.2,0.1,0.2,0.2,0.2h9.1c0.2,0,0.4,0.1,0.4,0.4v1.5
			c0,0.2-0.1,0.4-0.4,0.4h-10.8c-0.3,0-0.5-0.1-0.7-0.2c-0.1-0.1-0.2-0.3-0.2-0.6v-9.8c0-0.2,0.1-0.4,0.2-0.6
			c0.1-0.2,0.4-0.2,0.7-0.2H168.1z"></path>
		<path class="st__0" d="M182.1,116.6c0.2,0,0.4,0.1,0.4,0.4v1.6c0,0.3-0.1,0.4-0.4,0.4h-7.3c-0.4,0-0.8,0-1.1,0.1
			c-0.3,0.1-0.5,0.2-0.7,0.4c-0.2,0.2-0.3,0.4-0.3,0.7c-0.1,0.3-0.1,0.6-0.1,1.1v2.3c0,0.4,0,0.8,0.1,1.1s0.2,0.5,0.3,0.7
			c0.2,0.2,0.4,0.3,0.7,0.4c0.3,0.1,0.6,0.1,1.1,0.1h7.3c0.2,0,0.4,0.1,0.4,0.4v1.6c0,0.2-0.1,0.4-0.4,0.4h-7.3
			c-0.8,0-1.5-0.1-2.1-0.2c-0.6-0.2-1-0.4-1.4-0.7c-0.4-0.3-0.6-0.8-0.8-1.3s-0.3-1.2-0.3-2v-2.8c0-0.8,0.1-1.4,0.3-2
			c0.2-0.5,0.4-1,0.8-1.3c0.4-0.3,0.8-0.6,1.4-0.8c0.6-0.2,1.3-0.2,2.1-0.2H182.1z"></path>
		<path class="st__0" d="M186.4,116.6c0.2,0,0.4,0.1,0.4,0.4v4.3h1.4c0.3,0,0.5,0,0.7,0s0.3-0.1,0.5-0.1c0.1-0.1,0.3-0.1,0.4-0.2
			s0.2-0.2,0.3-0.4l2.8-3.7c0.1-0.1,0.1-0.1,0.2-0.2c0.1,0,0.2,0,0.3,0h2c0.1,0,0.2,0,0.3,0.1c0,0.1,0,0.2,0,0.3l-3.2,4.1
			c-0.2,0.3-0.4,0.5-0.5,0.6s-0.3,0.3-0.5,0.5c0.4,0.3,0.8,0.7,1.2,1.2l3.3,4.2c0,0.1,0.1,0.1,0.1,0.3c0,0.1-0.1,0.2-0.3,0.2h-2.1
			c-0.1,0-0.2,0-0.3,0c-0.1,0-0.1-0.1-0.2-0.2l-3-3.9c-0.2-0.3-0.4-0.5-0.7-0.6s-0.6-0.2-1.1-0.2h-1.5v4.5c0,0.2-0.1,0.4-0.4,0.4
			h-1.8c-0.3,0-0.4-0.1-0.4-0.4v-10.7c0-0.2,0.1-0.4,0.4-0.4H186.4z"></path>
		<path class="st__0" d="M204.5,116.6c0.4,0,0.8,0.1,1,0.3c0.3,0.2,0.6,0.5,0.8,1l5.4,9.8c0.1,0.1,0.1,0.2,0,0.3
			c0,0.1-0.1,0.1-0.2,0.1h-2.1c-0.2,0-0.3-0.1-0.4-0.2l-1.2-2.1h-7.7l-1.1,2.1c-0.1,0.1-0.2,0.2-0.4,0.2h-2.1c-0.1,0-0.2,0-0.3-0.1
			c0-0.1,0-0.2,0-0.3l5.3-9.8c0.3-0.5,0.5-0.8,0.8-1c0.3-0.2,0.6-0.3,0.9-0.3H204.5z M201.3,123.8h5.6l-2.6-4.8
			c0-0.1-0.1-0.1-0.2-0.1H204c-0.1,0-0.1,0-0.2,0.1L201.3,123.8z"></path>
		<path class="st__0" d="M225.2,116.6c0.3,0,0.5,0.2,0.5,0.5v10.6c0,0.2-0.1,0.4-0.4,0.4h-1.8c-0.2,0-0.4-0.1-0.4-0.4v-3.2H218
			l-2.6,3.4c-0.1,0.1-0.1,0.1-0.2,0.2c-0.1,0-0.2,0-0.3,0h-2.1c-0.2,0-0.2-0.1-0.3-0.2s0-0.2,0-0.2l2.8-3.5c-0.9-0.2-1.5-0.5-1.9-1
			s-0.6-1.3-0.6-2.2v-0.9c0-1.1,0.3-1.9,0.8-2.5c0.5-0.6,1.4-0.8,2.7-0.8H225.2z M215.5,121c0,0.5,0.1,0.9,0.3,1.1s0.6,0.4,1.2,0.4
			h6.2V119c0-0.1-0.1-0.2-0.2-0.2h-6c-0.6,0-0.9,0.1-1.2,0.4s-0.3,0.6-0.3,1.1V121z"></path>
		<path class="st__0" d="M245.1,116.6c0.2,0,0.4,0.1,0.4,0.4v1.6c0,0.3-0.1,0.4-0.4,0.4h-7.3c-0.4,0-0.8,0-1.1,0.1
			c-0.3,0.1-0.5,0.2-0.7,0.4c-0.2,0.2-0.3,0.4-0.3,0.7c-0.1,0.3-0.1,0.6-0.1,1.1v2.3c0,0.4,0,0.8,0.1,1.1s0.2,0.5,0.3,0.7
			c0.2,0.2,0.4,0.3,0.7,0.4c0.3,0.1,0.6,0.1,1.1,0.1h7.3c0.2,0,0.4,0.1,0.4,0.4v1.6c0,0.2-0.1,0.4-0.4,0.4h-7.3
			c-0.8,0-1.5-0.1-2.1-0.2c-0.6-0.2-1-0.4-1.4-0.7c-0.4-0.3-0.6-0.8-0.8-1.3s-0.3-1.2-0.3-2v-2.8c0-0.8,0.1-1.4,0.3-2
			c0.2-0.5,0.4-1,0.8-1.3c0.4-0.3,0.8-0.6,1.4-0.8c0.6-0.2,1.3-0.2,2.1-0.2H245.1z"></path>
		<path class="st__0" d="M258,116.6c0.5,0,0.9,0.1,1.2,0.3c0.2,0.2,0.3,0.6,0.3,1.1v9.7c0,0.2-0.1,0.4-0.4,0.4h-1.8
			c-0.2,0-0.4-0.1-0.4-0.4v-8.4c0-0.2-0.1-0.3-0.3-0.3h-3.8c-0.2,0-0.3,0.1-0.4,0.2c0,0.1-0.1,0.2-0.1,0.3c-0.1,0.5-0.1,1.1-0.2,1.7
			c-0.1,0.6-0.2,1.2-0.3,1.8c-0.1,0.6-0.2,1.1-0.3,1.7c-0.1,0.5-0.2,1-0.4,1.4c-0.2,0.7-0.5,1.2-0.9,1.5s-1,0.5-1.7,0.5h-1.7
			c-0.3,0-0.4-0.1-0.4-0.4V126c0-0.2,0.1-0.4,0.4-0.4h1.2c0.2,0,0.5-0.1,0.7-0.3c0.2-0.2,0.4-0.5,0.6-1c0.1-0.3,0.2-0.7,0.3-1
			c0.1-0.4,0.2-0.8,0.2-1.4s0.2-1.1,0.2-1.7c0.1-0.7,0.2-1.4,0.3-2.3c0-0.4,0.2-0.8,0.4-1c0.2-0.3,0.6-0.4,1.1-0.4H258z"></path>
		<path class="st__0" d="M262.9,116.6c0.1,0,0.3,0,0.3,0c0.1,0,0.1,0.1,0.2,0.2l3.9,6l3.8-5.9c0.1-0.1,0.1-0.2,0.2-0.3
			s0.2-0.1,0.5-0.1h1.8c0.2,0,0.2,0,0.3,0.1c0,0.1,0,0.2-0.1,0.3l-6.2,9.5c-0.2,0.3-0.4,0.6-0.6,0.7s-0.5,0.3-0.7,0.4
			c-0.3,0.1-0.5,0.2-0.8,0.2c-0.3,0-0.5,0.1-0.8,0.1H263c-0.2,0-0.4-0.1-0.4-0.4V126c0-0.2,0.1-0.4,0.4-0.4h1.6c0.4,0,0.7,0,0.8-0.1
			c0.2-0.1,0.3-0.2,0.4-0.4l0.1-0.2l-5.3-7.9c-0.1-0.1-0.1-0.2-0.1-0.3c0-0.1,0.1-0.1,0.3-0.1H262.9z"></path>
		<path class="st__0" d="M283.7,128c-0.2,0-0.4-0.1-0.4-0.4v-4.5h-1.5c-0.3,0-0.5,0-0.6,0c-0.2,0-0.3,0.1-0.5,0.1s-0.3,0.1-0.4,0.2
			c-0.1,0.1-0.2,0.2-0.3,0.4l-3,3.9c-0.1,0.1-0.1,0.1-0.2,0.2s-0.2,0-0.3,0h-2.1c-0.2,0-0.3-0.1-0.3-0.2c0-0.1,0-0.2,0-0.3l3.3-4.2
			c0.2-0.3,0.4-0.5,0.6-0.7c0.2-0.2,0.4-0.4,0.6-0.5c-0.2-0.1-0.3-0.3-0.5-0.5s-0.3-0.4-0.5-0.6l-3.2-4.1c-0.1-0.1-0.1-0.2,0-0.3
			c0-0.1,0.1-0.1,0.3-0.1h2c0.2,0,0.3,0,0.3,0c0.1,0,0.1,0.1,0.2,0.2l2.8,3.7c0.1,0.2,0.2,0.3,0.3,0.4c0.1,0.1,0.2,0.2,0.4,0.2
			c0.1,0.1,0.3,0.1,0.5,0.1s0.4,0,0.6,0h1.4v-4.3c0-0.2,0.1-0.4,0.4-0.4h1.8c0.2,0,0.4,0.1,0.4,0.4v4.3h1.4c0.3,0,0.5,0,0.7,0
			s0.3-0.1,0.5-0.1s0.3-0.1,0.4-0.2c0.1-0.1,0.2-0.2,0.3-0.4l2.8-3.7c0.1-0.1,0.1-0.1,0.2-0.2c0.1,0,0.2,0,0.3,0h2
			c0.1,0,0.2,0,0.3,0.1c0,0.1,0,0.2,0,0.3l-3.2,4.1c-0.2,0.3-0.4,0.5-0.5,0.6c-0.2,0.2-0.3,0.3-0.5,0.5c0.4,0.3,0.8,0.7,1.2,1.2
			l3.3,4.2c0,0.1,0.1,0.1,0,0.3c0,0.1-0.1,0.2-0.3,0.2h-2.1c-0.1,0-0.2,0-0.3,0s-0.1-0.1-0.2-0.2l-3-3.9c-0.2-0.3-0.5-0.5-0.7-0.6
			s-0.6-0.2-1.1-0.2h-1.5v4.5c0,0.2-0.1,0.4-0.4,0.4H283.7z"></path>
		<path class="st__0" d="M305.7,116.6c0.3,0,0.4,0.1,0.4,0.4v1.5c0,0.2-0.1,0.4-0.4,0.4h-5.8c-0.4,0-0.7,0.1-0.8,0.2s-0.2,0.4-0.2,0.8
			v1h6.6c1.3,0,2.2,0.3,2.7,0.9c0.5,0.6,0.8,1.4,0.8,2.5v0.5c0,1.1-0.3,1.9-0.8,2.5c-0.5,0.6-1.4,0.9-2.7,0.9h-8.6
			c-0.3,0-0.5-0.2-0.5-0.5v-8.2c0-0.9,0.2-1.5,0.7-2c0.5-0.5,1.2-0.7,2.1-0.7H305.7z M298.8,122.6v3.2c0,0.1,0.1,0.2,0.2,0.2h5.9
			c0.6,0,0.9-0.1,1.2-0.4c0.2-0.2,0.3-0.6,0.3-1.1V124c0-0.5-0.1-0.9-0.3-1.1c-0.2-0.2-0.6-0.4-1.2-0.4H298.8z"></path>
		<path class="st__0" d="M317.3,116.6c0.4,0,0.8,0.1,1,0.3s0.6,0.5,0.8,1l5.4,9.8c0.1,0.1,0.1,0.2,0,0.3c0,0.1-0.1,0.1-0.2,0.1h-2.1
			c-0.2,0-0.3-0.1-0.4-0.2l-1.2-2.1h-7.7l-1.1,2.1c-0.1,0.1-0.2,0.2-0.4,0.2h-2.1c-0.1,0-0.2,0-0.3-0.1c0-0.1,0-0.2,0-0.3l5.3-9.8
			c0.3-0.5,0.5-0.8,0.8-1c0.3-0.2,0.6-0.3,0.9-0.3H317.3z M314.1,123.8h5.6l-2.6-4.8c0-0.1-0.1-0.1-0.2-0.1h-0.1
			c-0.1,0-0.1,0-0.2,0.1L314.1,123.8z"></path>
	</g>
</g>
</svg>