<svg xmlns="http://www.w3.org/2000/svg" width="126.74" height="45.77" viewBox="0 0 126.74 45.77"><title>etalon_logo_new_lg</title><g id="Layer_2" data-name="Layer 2"><g id="Layer_1-2" data-name="Layer 1"><g id="Layer_2-2" data-name="Layer 2"><g id="Layer_1-2-2" data-name="Layer 1-2"><path d="M50.42,6c-.3-.19-.82-.5-1.48-.86-10.82-6-21.74-5.3-25.73-5A31.14,31.14,0,0,0,14.5,1.85a22.05,22.05,0,0,0-8,4.81A21.58,21.58,0,0,0,.87,16,22.43,22.43,0,0,0,.44,26.63,22.83,22.83,0,0,0,5.49,37a23.85,23.85,0,0,0,9.91,6.76,29,29,0,0,0,7.24,1.72,44.79,44.79,0,0,0,16.29-1,47.47,47.47,0,0,0,11.81-4.67V31.68l-2.42,1c-.41.14-1,.33-1.67.52a33.43,33.43,0,0,1-5.43,1,29.1,29.1,0,0,1-8.91,0,17,17,0,0,1-6.81-2.38A11.13,11.13,0,0,1,21,27.25a10.25,10.25,0,0,1-.81-6.1,10.8,10.8,0,0,1,3.38-6,13.5,13.5,0,0,1,3.29-2,19,19,0,0,1,3-1A27,27,0,0,1,35,11.33a45,45,0,0,1,6.91.1,20.25,20.25,0,0,1,6.29,1.1,15.74,15.74,0,0,1,1.86.86" fill="#008dd1"/><g style="isolation:isolate"><g style="isolation:isolate"><path d="M23.9,22.77H26a2.25,2.25,0,0,0-.13-.63,1.56,1.56,0,0,0-.29-.49,1.25,1.25,0,0,0-.45-.32,1.52,1.52,0,0,0-.6-.12,2.5,2.5,0,0,0-.74.1,2.33,2.33,0,0,0-.51.22l-.23-1a2.9,2.9,0,0,1,.69-.26,3.32,3.32,0,0,1,.82-.11,3,3,0,0,1,1,.16,1.9,1.9,0,0,1,.79.53,2.59,2.59,0,0,1,.52,1,4.83,4.83,0,0,1,.19,1.45,4.33,4.33,0,0,1-.22,1.48,2.52,2.52,0,0,1-.59,1,2.15,2.15,0,0,1-.85.51,3.24,3.24,0,0,1-1,.15,3.59,3.59,0,0,1-.81-.08,2.66,2.66,0,0,1-.58-.2l.28-1a2.36,2.36,0,0,0,.49.17,2.74,2.74,0,0,0,.71.08,1.63,1.63,0,0,0,.56-.09,1.23,1.23,0,0,0,.46-.29,1.51,1.51,0,0,0,.33-.51,2.42,2.42,0,0,0,.16-.74H23.9Z" fill="#008dd1"/></g><g style="isolation:isolate"><path d="M31.45,21.33h-1.6v4.93H28.77V21.33H27.16v-1h4.29Z" fill="#008dd1"/></g><g style="isolation:isolate"><path d="M34.1,24.94H32.42L32,26.27H30.93l2-6h.79l2,6H34.54ZM32.69,24h1.18l-.41-1.33-.16-.94h0l-.16.95Z" fill="#008dd1"/></g><g style="isolation:isolate"><path d="M38.82,21.33H37.65q0,.81-.07,1.48T37.47,24a7.05,7.05,0,0,1-.18.94,3,3,0,0,1-.28.71,1.34,1.34,0,0,1-.25.32,1.28,1.28,0,0,1-.29.2,1.16,1.16,0,0,1-.29.11l-.27,0a1.32,1.32,0,0,1-.3,0,1.14,1.14,0,0,1-.24-.09l.12-1,.09,0h.09a.5.5,0,0,0,.25-.07.55.55,0,0,0,.21-.23,1.89,1.89,0,0,0,.2-.55,8.49,8.49,0,0,0,.15-.93q.07-.56.11-1.34t.05-1.82h3.24v6H38.82Z" fill="#008dd1"/><path d="M40.66,23.28a3.77,3.77,0,0,1,.6-2.3A2,2,0,0,1,43,20.17a2.25,2.25,0,0,1,1,.22,2,2,0,0,1,.73.63,2.87,2.87,0,0,1,.43,1,5.3,5.3,0,0,1,.14,1.27,3.76,3.76,0,0,1-.61,2.3,2,2,0,0,1-1.72.81,2.27,2.27,0,0,1-1-.22,1.94,1.94,0,0,1-.73-.63,2.92,2.92,0,0,1-.43-1A5.3,5.3,0,0,1,40.66,23.28Zm1.13,0a4.57,4.57,0,0,0,.07.83,2.28,2.28,0,0,0,.22.65,1.15,1.15,0,0,0,.37.43.94.94,0,0,0,.54.15,1,1,0,0,0,.89-.49,3,3,0,0,0,.31-1.58,4.64,4.64,0,0,0-.07-.81,2.39,2.39,0,0,0-.21-.66,1.14,1.14,0,0,0-.37-.44,1,1,0,0,0-.56-.16,1,1,0,0,0-.89.5A3,3,0,0,0,41.79,23.28Z" fill="#008dd1"/><path d="M49.18,23.77h-2v2.5H46.09v-6h1.08v2.43h2V20.29h1.08v6H49.18Z" fill="#008dd1"/></g></g><g style="isolation:isolate"><g style="isolation:isolate"><path d="M58.87,12.2h5.39a4.9,4.9,0,0,0-.33-1.47,3.58,3.58,0,0,0-.73-1.15,3.18,3.18,0,0,0-1.14-.75,4.15,4.15,0,0,0-1.54-.27,6.85,6.85,0,0,0-1.88.23,6.22,6.22,0,0,0-1.3.51L56.75,7a7.81,7.81,0,0,1,1.76-.61,9.12,9.12,0,0,1,2.1-.25,8.23,8.23,0,0,1,2.55.38,4.9,4.9,0,0,1,2,1.25A6,6,0,0,1,66.52,10,10.47,10.47,0,0,1,67,13.4a9.43,9.43,0,0,1-.56,3.48,5.87,5.87,0,0,1-1.5,2.24,5.57,5.57,0,0,1-2.16,1.2,8.94,8.94,0,0,1-2.54.36,9.89,9.89,0,0,1-2.07-.2A7.25,7.25,0,0,1,56.67,20l.72-2.38a6.56,6.56,0,0,0,1.24.41,7.65,7.65,0,0,0,1.8.19A4.53,4.53,0,0,0,61.88,18,3.2,3.2,0,0,0,63,17.33a3.55,3.55,0,0,0,.83-1.19,5.32,5.32,0,0,0,.4-1.74H58.87Z" fill="#020202"/></g><g style="isolation:isolate"><path d="M78.13,8.83H74V20.41H71.31V8.83H67.2V6.39H78.13Z" fill="#020202"/></g><g style="isolation:isolate"><path d="M84.9,17.3H80.6l-1.06,3.1H76.79l5-14.12h2l5,14.12H86Zm-3.6-2.2h3l-1-3.12-.42-2.2h-.1L82.32,12Z" fill="#020202"/></g><g style="isolation:isolate"><path d="M96.91,8.83h-3q-.08,1.9-.18,3.46t-.27,2.81A15.36,15.36,0,0,1,93,17.32,6.62,6.62,0,0,1,92.31,19a3.16,3.16,0,0,1-.63.76,3.3,3.3,0,0,1-.73.48,3.13,3.13,0,0,1-.75.25,3.77,3.77,0,0,1-.69.07,3.6,3.6,0,0,1-.77-.07,3,3,0,0,1-.61-.21l.3-2.36.24.06.24,0a1.36,1.36,0,0,0,.63-.16,1.33,1.33,0,0,0,.53-.54A4.2,4.2,0,0,0,90.59,16,18,18,0,0,0,91,13.82q.17-1.32.27-3.15t.14-4.27h8.27v14H96.91Z" fill="#020202"/><path d="M101.62,13.4A8.34,8.34,0,0,1,103.16,8a5.36,5.36,0,0,1,4.4-1.89,6.17,6.17,0,0,1,2.62.52,4.94,4.94,0,0,1,1.86,1.48,6.47,6.47,0,0,1,1.1,2.3,11.5,11.5,0,0,1,.36,3A8.31,8.31,0,0,1,112,18.8a5.37,5.37,0,0,1-4.4,1.89,6.23,6.23,0,0,1-2.64-.52,4.85,4.85,0,0,1-1.85-1.48,6.56,6.56,0,0,1-1.09-2.3A11.49,11.49,0,0,1,101.62,13.4Zm2.88,0a9.86,9.86,0,0,0,.18,2,5,5,0,0,0,.55,1.53,2.8,2.8,0,0,0,1,1,2.57,2.57,0,0,0,1.38.36,2.6,2.6,0,0,0,2.26-1.14,6.6,6.6,0,0,0,.8-3.7,10.05,10.05,0,0,0-.17-1.9,5.3,5.3,0,0,0-.53-1.54,2.77,2.77,0,0,0-.94-1,2.82,2.82,0,0,0-3.68.8A6.62,6.62,0,0,0,104.5,13.4Z" fill="#020202"/><path d="M123.34,14.54h-5.13v5.87h-2.74v-14h2.74V12.1h5.13V6.39h2.74v14h-2.74Z" fill="#020202"/></g></g><g style="isolation:isolate"><g style="isolation:isolate"><path d="M67.2,38.87a4.3,4.3,0,0,1-1.67.67,10.51,10.51,0,0,1-2.08.2,7.45,7.45,0,0,1-2.44-.4,5.24,5.24,0,0,1-2-1.29,6.34,6.34,0,0,1-1.4-2.31A10,10,0,0,1,57,32.29a9.33,9.33,0,0,1,.58-3.53,6.4,6.4,0,0,1,1.51-2.29,5.6,5.6,0,0,1,2.08-1.25,7.28,7.28,0,0,1,2.29-.38,11.26,11.26,0,0,1,2.08.16,7.66,7.66,0,0,1,1.4.39l-.55,2.37a4.05,4.05,0,0,0-1.12-.33,10.29,10.29,0,0,0-1.56-.1A3.42,3.42,0,0,0,61,28.55a5.69,5.69,0,0,0-1,3.75,7.76,7.76,0,0,0,.25,2A4.35,4.35,0,0,0,61,35.88a3.44,3.44,0,0,0,1.25,1,4,4,0,0,0,1.73.36,5.68,5.68,0,0,0,1.55-.18,4.57,4.57,0,0,0,1.1-.47Z" fill="#020202"/><path d="M68.94,25.13h8.49v2.5H71.74V31h5.18v2.5H71.74V37h5.79v2.5H68.94Z" fill="#020202"/><path d="M79.62,25.28A19,19,0,0,1,81.51,25q1-.09,2.06-.09a13.44,13.44,0,0,1,2.14.17,5.33,5.33,0,0,1,1.93.7A4,4,0,0,1,89,27.25a4.79,4.79,0,0,1,.54,2.42A5,5,0,0,1,89.11,32a4.37,4.37,0,0,1-1.25,1.52,5,5,0,0,1-1.77.86A7.88,7.88,0,0,1,84,34.6h-.8l-.48,0-.34,0v4.93h-2.8Zm4.17,2.07c-.27,0-.53,0-.78,0l-.59.07v4.64l.25,0,.35,0h.61a5.8,5.8,0,0,0,1.09-.1,2.71,2.71,0,0,0,1-.38,2,2,0,0,0,.69-.77,2.8,2.8,0,0,0,.26-1.29,2.27,2.27,0,0,0-.25-1.12,2,2,0,0,0-.64-.71,2.5,2.5,0,0,0-.91-.37A5.38,5.38,0,0,0,83.79,27.34Z" fill="#020202"/><path d="M101,28.47a4.4,4.4,0,0,1-.13,1.06,3,3,0,0,1-.44,1,3.1,3.1,0,0,1-.79.78,3.45,3.45,0,0,1-1.18.5v.12a4.76,4.76,0,0,1,1.16.35,3,3,0,0,1,1,.67,3.1,3.1,0,0,1,.64,1,4.07,4.07,0,0,1,.23,1.45,3.73,3.73,0,0,1-.47,1.91,3.89,3.89,0,0,1-1.26,1.32,5.8,5.8,0,0,1-1.79.76,8.64,8.64,0,0,1-2.07.25h-.89l-1.17,0-1.27-.09a9.06,9.06,0,0,1-1.18-.18V25.23l.89-.12,1.07-.1,1.18-.06,1.2,0a12.35,12.35,0,0,1,2,.15,5.6,5.6,0,0,1,1.7.54,3.11,3.11,0,0,1,1.2,1.08A3.18,3.18,0,0,1,101,28.47Zm-6,2.68.67,0a6.08,6.08,0,0,0,.62-.06,3.73,3.73,0,0,0,1.34-.73,1.6,1.6,0,0,0,.56-1.28,1.68,1.68,0,0,0-.21-.87,1.54,1.54,0,0,0-.54-.55,2.3,2.3,0,0,0-.77-.28,4.89,4.89,0,0,0-.9-.08l-1,0a6,6,0,0,0-.7.06v3.79Zm.89,6.16a3.89,3.89,0,0,0,1-.12,2.55,2.55,0,0,0,.83-.37,2,2,0,0,0,.58-.64,1.8,1.8,0,0,0,.22-.91,1.85,1.85,0,0,0-.26-1.05,1.78,1.78,0,0,0-.68-.6,2.79,2.79,0,0,0-.94-.27,9.13,9.13,0,0,0-1-.06H94.06v3.91a1.22,1.22,0,0,0,.32.06l.47,0,.52,0Z" fill="#020202"/><path d="M111.76,31.52l.16-1.86h-.1l-1,1.92-5.34,7.88h-2.11V25.13h2.8v7.79l-.2,1.92h.12l1-2,5.34-7.73h2.09V39.45h-2.8Z" fill="#020202"/></g><g style="isolation:isolate"><path d="M126.74,38.87a4.3,4.3,0,0,1-1.67.67,10.52,10.52,0,0,1-2.08.2,7.45,7.45,0,0,1-2.45-.4,5.24,5.24,0,0,1-2-1.29,6.35,6.35,0,0,1-1.4-2.31,10,10,0,0,1-.52-3.45,9.34,9.34,0,0,1,.58-3.53,6.4,6.4,0,0,1,1.51-2.29,5.6,5.6,0,0,1,2.08-1.25,7.28,7.28,0,0,1,2.29-.38,11.24,11.24,0,0,1,2.08.16,7.66,7.66,0,0,1,1.4.39L126,27.77a4.06,4.06,0,0,0-1.12-.33,10.3,10.3,0,0,0-1.57-.1,3.42,3.42,0,0,0-2.73,1.21,5.69,5.69,0,0,0-1,3.75,7.74,7.74,0,0,0,.25,2,4.35,4.35,0,0,0,.75,1.56,3.44,3.44,0,0,0,1.25,1,4,4,0,0,0,1.73.36,5.68,5.68,0,0,0,1.55-.18,4.58,4.58,0,0,0,1.11-.47Z" fill="#020202"/></g></g></g></g></g></g></svg>