<svg width="800" height="600" xmlns="http://www.w3.org/2000/svg">
 <defs>
  <style type="text/css">
   <![CDATA[
    .fil1 {fill:#AAA9A9}
    .fil4 {fill:white}
    .fil2 {fill:#3EB1E2}
    .fil3 {fill:#DD4536}
    .fil0 {fill:#838281;fill-rule:nonzero}
   ]]>
  </style>
  <mask id="id0">
   <rect x="144.159" y="111.26" width="89.8838" height="89.8838" fill="url(#id1)" id="svg_1"/>
  </mask>
  <linearGradient id="id1" x1="0.593589" y1="0.168028" x2="0.406425" y2="0.831974">
   <stop offset="0"/>
   <stop offset="1" stop-opacity="0"/>
  </linearGradient>
 </defs>
 <g>
  <title>background</title>
  <rect x="-1" y="-1" width="802" height="602" id="canvas_background" fill="none"/>
 </g>
 <g>
  <title>Layer 1</title>
  <g stroke="null" id="Layer_x0020_1">
   <metadata stroke="null" transform="translate(34.61374282836914,0) translate(-42,-1) translate(1.6437650918960571,1.9517858028411865) scale(1.2864797115325928,1.2606608867645264) translate(-1.6437650918960571,-1.9517858028411865) " id="CorelCorpID_0Corel-Layer"/>
   <g stroke="null" id="_154613120">
    <g stroke="null" id="svg_2">
     <path stroke="null" id="_154626248" class="fil0" d="m59.288353,472.967888c13.546976,0 23.030474,-9.058127 23.030474,-21.109638l0,-44.346356c0,-12.050536 -9.483553,-21.089141 -23.030474,-21.089141c-13.546976,0 -23.030845,9.038604 -23.030845,22.294012l0,41.936448c0,13.256433 9.483905,22.31451 23.030845,22.31451l0,0.000165zm0,-6.769598c-8.805377,0 -14.901563,-6.025103 -14.901563,-15.545127l0,-41.936448c0,-9.520024 6.096186,-15.545441 14.901563,-15.545441c8.805377,0 14.901563,6.025417 14.901563,14.340487l0,44.346356c0,8.31507 -6.096186,14.340173 -14.901563,14.340173l0,0.000001zm42.26766,5.925295l17.882229,0c13.411044,0 22.081641,-9.058127 22.081641,-20.868134l0,-6.506837c0,-11.809975 -8.670504,-20.848299 -22.081641,-20.848299l-13.953659,0l0,-15.906903c0,-7.953608 5.689839,-13.979025 13.953659,-13.979025l16.121294,0c0.811971,0 1.354233,-0.48142 1.354233,-1.204641l0,-4.338101c0,-0.723237 -0.542261,-1.204955 -1.354233,-1.204955l-16.121294,0c-13.005773,0 -22.081826,9.037663 -22.081826,20.726803l0,60.374837c0,2.04815 1.896142,3.755302 4.199691,3.755302l-0.000093,-0.000049l-0.000001,0.000001zm3.928569,-6.76849l0,-34.70606l13.953659,0c8.53459,0 13.953659,6.025103 13.953659,14.099612l0,6.506837c0,8.074509 -5.419069,14.099612 -13.953659,14.099612l-13.953659,0l0,-0.000001zm68.68446,7.73257c13.27619,0 22.352391,-9.178085 22.758608,-23.037201c0,-0.723221 -0.542261,-1.08374 -1.354233,-1.08374l-5.419069,0c-0.813403,0 -1.354586,0.360519 -1.354586,1.204641c-0.271846,10.122658 -5.689839,16.147761 -14.630776,16.147761c-8.806436,0 -13.953659,-5.181924 -13.953659,-13.978711l0,-45.311048c0,-8.796787 5.147223,-13.979025 13.953659,-13.979025c8.127889,0 13.546976,5.543683 13.953659,15.546383c0,0.843196 0.541185,1.204955 1.354233,1.204955l5.419069,0c0.811971,0 1.354586,-0.482659 1.354586,-1.204955c-0.406701,-13.376391 -9.347639,-22.294012 -22.081641,-22.294012c-13.276543,0 -22.082941,8.315384 -22.082941,20.726803l0,45.311048c0,12.412296 8.806436,20.747135 22.082941,20.747135l0.000149,-0.000033l0,-0.000001zm30.074991,-0.843179c11.786043,-0.623114 19.643219,-9.660761 19.643219,-22.555353l0,-42.17729c0,-8.435971 5.012722,-13.497291 13.54733,-13.497291l11.514197,0l0,76.642838c0,0.723221 0.542261,1.205897 1.355646,1.205897l5.419069,0c0.81199,0 1.354251,-0.482676 1.354251,-1.205897l0,-77.365199c0,-3.856367 -2.43805,-6.025433 -6.773303,-6.025433l-12.869841,0c-13.005773,0 -21.676352,8.073566 -21.676352,20.244971l0,42.17729c0,9.158249 -4.335251,15.063708 -11.514197,15.666027c-0.949317,0.1209 -1.355664,0.602634 -1.355664,1.325855l0,4.337787c0,0.723535 0.542261,1.225733 1.355664,1.225733l-0.000018,0.000066l-0.000001,0zm69.632364,0l18.964949,0c13.005773,0 22.08257,-9.058127 22.08257,-20.747135l0,-62.784747c0,-0.723237 -0.542261,-1.204971 -1.355646,-1.204971l-5.417657,0c-0.813403,0 -1.355664,0.481734 -1.355664,1.204971l0,44.226019l-13.54733,0c-8.263821,0 -13.953659,-6.025103 -13.953659,-13.978711l0,-30.247422c0,-0.723237 -0.541203,-1.204971 -1.354233,-1.204971l-5.419069,0c-0.811971,0 -1.354586,0.481734 -1.354586,1.204971l0,30.247422c0,11.689075 9.077205,20.7273 22.081641,20.7273l13.54733,0l0,11.809958c0,7.953626 -5.689839,13.978711 -13.953659,13.978711l-18.964949,0c-0.813403,0 -1.355664,0.481734 -1.355664,1.204971l0,4.337787c0,0.723535 0.542261,1.225733 1.355664,1.225733l-0.000037,0.000116l0.000001,-0.000001zm58.387598,-0.381297l5.419069,0c0.813031,0 1.354586,-0.482676 1.354586,-1.205913l0,-24.703756c0,-7.470932 5.553571,-13.497291 13.546976,-13.497291l12.192725,0l0,38.200999c0,0.723237 0.542261,1.205913 1.354233,1.205913l5.419069,0c0.813403,0 1.354605,-0.482676 1.354605,-1.205913l0,-38.200999l12.192725,0c7.993034,0 13.546976,6.026359 13.546976,13.497291l0,24.703756c0,0.723237 0.542261,1.205913 1.354586,1.205913l5.419069,0c0.813031,0 1.355292,-0.482676 1.355292,-1.205913l0,-24.703756c0,-8.676829 -5.419069,-16.147761 -13.818804,-19.040082l14.631129,-38.080164c0.271494,-0.844121 -0.134855,-1.325855 -1.083818,-1.325855l-5.419069,0c-0.677469,0 -1.354586,0.361776 -1.625355,0.964095l-14.089591,37.236969l-12.463159,0l0,-36.995961c0,-0.723237 -0.541203,-1.204955 -1.354605,-1.204955l-5.419069,0c-0.811971,0 -1.354233,0.481717 -1.354233,1.204955l0,36.995961l-12.463512,0l-14.089591,-37.236969c-0.270415,-0.60232 -0.947885,-0.964095 -1.625001,-0.964095l-5.419069,0c-0.947904,0 -1.354605,0.481734 -1.083818,1.325855l14.630776,38.080164c-8.398676,2.892271 -13.817745,10.363204 -13.817745,19.040082l0,24.703756c0,0.723237 0.541555,1.205913 1.354586,1.205913l0.000037,0l0.000003,0zm126.124154,-83.1507l0,76.642508l-13.546976,0c-8.53459,0 -13.953659,-6.025103 -13.953659,-14.581032l0,-62.061559c0,-0.723237 -0.542615,-1.204955 -1.354586,-1.204955l-5.419069,0c-0.813049,0 -1.354586,0.481734 -1.354586,1.204955l0,62.061559c0,12.291394 8.669444,21.349489 22.081826,21.349489l17.610383,0c2.574318,0 4.064836,-1.345394 4.064836,-3.635344l0,-79.775604c0,-0.723237 -0.541555,-1.204955 -1.354605,-1.204955l-5.419069,0c-0.813031,0 -1.354586,0.481734 -1.354586,1.204955l0.000093,-0.000016zm57.169316,39.767381c6.909235,-1.807275 11.244486,-8.074195 11.244486,-16.147761l0,-5.784558c0,-12.050536 -8.53459,-20.125111 -21.540326,-20.125111c-12.463159,0 -20.861871,8.074509 -20.861871,20.125111l0,61.940559c0,2.16905 1.625021,3.635344 4.063425,3.635344l18.559698,0c13.27619,0 22.081641,-8.09403 22.081641,-20.265452l0,-5.904517c0,-8.435028 -5.283155,-15.183666 -13.546976,-17.473699l-0.000075,0.000083l-0.000001,0zm-23.02973,-21.932336c0,-8.435028 4.740894,-13.376391 12.733927,-13.376391c8.53459,0 13.412457,4.941363 13.412457,13.376391l0,5.784558c0,8.435028 -5.012368,13.376391 -13.546976,13.376391l-12.599426,0l0,-19.160916l0.000018,-0.000033zm28.448819,45.310386c0,8.435971 -5.147223,13.496977 -13.953659,13.496977l-14.495215,0l0,-32.898836l14.495215,0c8.806436,0 13.953659,5.06228 13.953659,13.497291l0,5.904517l0,0.000049l0,0.000001zm22.894634,20.005104l5.419069,0c0.811971,0 1.354586,-0.482676 1.354586,-1.205913l0,-29.403236l28.448447,0l0,29.403236c0,0.723237 0.542615,1.205913 1.354586,1.205913l5.419069,0c0.813049,0 1.354605,-0.482676 1.354605,-1.205913l0,-62.543244c0,-13.014615 -8.941291,-21.691495 -22.352391,-21.691495c-13.412457,0 -22.352391,8.676829 -22.352391,21.691495l0,62.543244c0,0.723237 0.541185,1.205913 1.354233,1.205913l0.000185,0zm6.773655,-37.357803l0,-26.391304c0,-9.399125 5.147223,-14.942808 14.224447,-14.942808c9.076852,0 14.224093,5.543683 14.224093,14.942808l0,26.391304l-28.448447,0l-0.000093,0zm89.682172,-45.792897l0,36.995961l-27.093954,0l0,-36.995961c0,-0.723237 -0.542615,-1.204955 -1.354586,-1.204955l-5.419069,0c-0.813049,0 -1.355664,0.481734 -1.355664,1.204955l0,81.944671c0,0.723221 0.542615,1.205897 1.355664,1.205897l5.419069,0c0.811971,0 1.354586,-0.482676 1.354586,-1.205897l0,-38.321006l27.093954,0l0,38.321006c0,0.723221 0.541555,1.205897 1.354586,1.205897l5.419069,0c0.813049,0 1.354586,-0.482676 1.354586,-1.205897l0,-81.944671c0,-0.723237 -0.541537,-1.204955 -1.354586,-1.204955l-5.419069,0c-0.813031,0 -1.354586,0.481734 -1.354586,1.204955zm61.6405,0l0,76.642508l-13.54733,0c-8.53459,0 -13.953659,-6.025103 -13.953659,-14.581032l0,-62.061559c0,-0.723237 -0.542261,-1.204955 -1.354233,-1.204955l-5.419069,0c-0.813403,0 -1.354586,0.481734 -1.354586,1.204955l0,62.061559c0,12.291394 8.669444,21.349489 22.081641,21.349489l17.610735,0c2.573964,0 4.064483,-1.345394 4.064483,-3.635344l0,-79.775604c0,-0.723237 -0.541203,-1.204955 -1.354605,-1.204955l-5.419069,0c-0.813031,0 -1.354233,0.481734 -1.354233,1.204955l-0.000075,-0.000016l0.000001,0zm46.331882,83.411048l14.088513,0c0.813383,0 1.354586,-0.502198 1.354586,-1.224476l0,-4.339042c0,-0.722294 -0.541203,-1.204971 -1.354586,-1.204971l-14.088513,0c-8.263821,0 -13.953306,-6.025103 -13.953306,-13.978711l0,-18.920074l24.790441,0c0.813383,0 1.355646,-0.481717 1.355646,-1.204955l0,-4.337787c0,-0.723535 -0.542261,-1.204955 -1.355646,-1.204955l-24.790441,0l0,-17.715203c0,-7.953608 5.689485,-13.979025 13.953306,-13.979025l14.088513,0c0.813383,0 1.354586,-0.48142 1.354586,-1.204641l0,-4.338101c0,-0.723237 -0.541203,-1.204955 -1.354586,-1.204955l-14.088513,0c-13.005421,0 -22.08257,9.037663 -22.08257,20.726803l0,43.382988c0,11.689075 9.077205,20.747135 22.08257,20.747135l0,-0.000033l0,0.000001z"/>
     <path stroke="null" id="_154626176" class="fil0" d="m45.675947,595.865141l17.882581,0c13.411044,0 22.081641,-9.058127 22.081641,-20.867804l0,-6.506837c0,-11.809975 -8.670504,-20.848299 -22.081641,-20.848299l-13.953659,0l0,-15.907217c0,-7.953294 5.689485,-13.978711 13.953659,-13.978711l16.121294,0c0.811971,0 1.354233,-0.481734 1.354233,-1.204955l0,-4.337787c0,-0.723237 -0.542261,-1.204955 -1.354233,-1.204955l-16.121294,0c-13.005773,0 -22.081826,9.037663 -22.081826,20.726473l0,60.375168c0,2.04815 1.896142,3.754988 4.199337,3.754988l-0.000093,-0.000066l0,0.000001zm3.929016,-6.76811l0,-34.70639l13.953659,0c8.53459,0 13.953659,6.025417 13.953659,14.099926l0,6.506837c0,8.074195 -5.419069,14.099612 -13.953659,14.099612l-13.953659,0l0,0.000016l0,-0.000001zm56.22104,6.507779l15.308245,0c12.733927,0 21.675237,-9.038291 21.675237,-20.245945l0,-8.675573c0,-11.207655 -8.941291,-20.245945 -21.675237,-20.245945l-13.953659,0l0,-33.982873c0,-0.723551 -0.542615,-1.204971 -1.354586,-1.204971l-5.419069,0c-0.813049,0 -1.355312,0.48142 -1.355312,1.204971l0,77.125184c0,3.85511 2.439128,6.025103 6.774362,6.025103l0.000018,0.000049l0.000001,0zm49.989331,0l5.419069,0c0.811971,0 1.354233,-0.482362 1.354233,-1.205913l0,-81.944341c0,-0.723535 -0.542261,-1.204955 -1.354233,-1.204955l-5.419069,0c-0.813383,0 -1.355646,0.48142 -1.355646,1.204955l0,81.944341c0,0.723551 0.542261,1.205913 1.355646,1.205913zm-48.634651,-6.748654l0,-35.67009l13.953659,0c7.991975,0 13.546976,6.025103 13.546976,13.497291l0,8.675573c0,7.472189 -5.554983,13.497291 -13.546976,13.497291l-13.953659,0l0,-0.000066zm108.918987,-77.606703l-40.641301,0c-0.813031,0 -1.355646,0.481404 -1.355646,1.204955l0,4.337787c0,0.723221 0.542615,1.205897 1.355646,1.205897l16.256149,0l0,76.400674c0,0.723551 0.542615,1.205913 1.354586,1.205913l5.419069,0c0.813049,0 1.354233,-0.482362 1.354233,-1.205913l0,-76.400674l16.257208,0c0.813403,0 1.354605,-0.482676 1.354605,-1.205897l0,-4.337787c0,-0.723551 -0.541203,-1.204955 -1.354605,-1.204955l0.000055,0zm33.054541,85.460107c13.54733,0 23.030845,-9.058127 23.030845,-21.109968l0,-44.346026c0,-12.05085 -9.483553,-21.089141 -23.030845,-21.089141c-13.546976,0 -23.030474,9.038291 -23.030474,22.294012l0,41.936118c0,13.256747 9.483553,22.31484 23.030474,22.31484l0,0.000165zm0,-6.769433c-8.805024,0 -14.901563,-6.025417 -14.901563,-15.545441l0,-41.936118c0,-9.520024 6.096539,-15.545441 14.901563,-15.545441c8.805377,0 14.901563,6.025417 14.901563,14.340487l0,44.346026c0,8.31507 -6.096186,14.340487 -14.901563,14.340487l0,0.000001zm69.226145,-37.718322c6.909235,-1.807275 11.244486,-8.074509 11.244486,-16.147761l0,-5.784558c0,-12.05085 -8.53459,-20.125111 -21.540326,-20.125111c-12.463159,0 -20.861871,8.074195 -20.861871,20.125111l0,61.940559c0,2.168736 1.625021,3.63503 4.063425,3.63503l18.559698,0c13.27619,0 22.081641,-8.09403 22.081641,-20.265452l0,-5.904517c0,-8.435028 -5.283155,-15.183666 -13.546976,-17.473369l-0.000075,0.000066l-0.000001,0.000001zm-23.02973,-21.932336c0,-8.435028 4.740894,-13.376391 12.733927,-13.376391c8.53459,0 13.412457,4.941363 13.412457,13.376391l0,5.784558c0,8.435028 -5.012722,13.376391 -13.54733,13.376391l-12.599073,0l0,-19.160916l0.000018,-0.000033l0.000001,0zm28.448819,45.310221c0,8.435971 -5.147595,13.497291 -13.953659,13.497291l-14.495215,0l0,-32.898836l14.495215,0c8.806084,0 13.953659,5.061966 13.953659,13.496977l0,5.904517l0,0.000049l0,0.000001zm29.397465,20.005104l15.308245,0c12.733927,0 21.675237,-9.038291 21.675237,-20.245945l0,-8.675573c0,-11.207655 -8.941291,-20.245945 -21.675237,-20.245945l-13.953659,0l0,-33.982873c0,-0.723551 -0.542615,-1.204971 -1.354586,-1.204971l-5.419069,0c-0.813049,0 -1.355664,0.48142 -1.355664,1.204971l0,77.125184c0,3.85511 2.439463,6.025103 6.774715,6.025103l0.000018,0.000049zm49.98896,0l5.419069,0c0.812324,0 1.354586,-0.482362 1.354586,-1.205913l0,-81.944341c0,-0.723535 -0.542261,-1.204955 -1.354586,-1.204955l-5.419069,0c-0.813031,0 -1.355292,0.48142 -1.355292,1.204955l0,81.944341c0,0.723551 0.542261,1.205913 1.355292,1.205913zm-48.63428,-6.748654l0,-35.67009l13.953659,0c7.991975,0 13.546976,6.025103 13.546976,13.497291l0,8.675573c0,7.472189 -5.554983,13.497291 -13.546976,13.497291l-13.953659,0l0,-0.000066zm115.692753,-53.50563l0,-22.896035c0,-0.723551 -0.542615,-1.204971 -1.354586,-1.204971l-5.419069,0c-0.813049,0 -1.354586,0.48142 -1.354586,1.204971l0,22.896035c0,8.074509 -5.689485,14.219901 -13.953659,14.219901c-8.263821,0 -13.953659,-6.145375 -13.953659,-14.219901l0,-22.896035c0,-0.723551 -0.542261,-1.204971 -1.355312,-1.204971l-5.418011,0c-0.813383,0 -1.355646,0.48142 -1.355646,1.204971l0,22.896035c0,8.315384 4.064483,13.979025 11.515255,17.473699c-7.450772,3.494607 -11.515255,9.158249 -11.515255,17.473699l0,24.101073c0,0.723535 0.542261,1.205897 1.355646,1.205897l5.418011,0c0.813049,0 1.355312,-0.482362 1.355312,-1.205897l0,-24.101073c0,-8.073566 5.689839,-14.099612 13.953659,-14.099612c8.264175,0 13.953659,6.026045 13.953659,14.099612l0,24.101073c0,0.723535 0.541555,1.205897 1.354586,1.205897l5.419069,0c0.811971,0 1.354586,-0.482362 1.354586,-1.205897l0,-24.101073c0,-8.315384 -4.064483,-13.979025 -11.515608,-17.473699c7.451126,-3.494607 11.515608,-9.158249 11.515608,-17.473699zm66.246038,61.478711c13.276543,0 22.352391,-9.177771 22.75898,-23.036871c0,-0.723237 -0.542615,-1.084054 -1.354586,-1.084054l-5.419069,0c-0.813049,0 -1.354586,0.360816 -1.354586,1.204955c-0.271846,10.122344 -5.689485,16.147761 -14.630776,16.147761c-8.806436,0 -13.953659,-5.182238 -13.953659,-13.978711l0,-45.311378c0,-8.796473 5.147223,-13.978711 13.953659,-13.978711c8.127889,0 13.546976,5.543683 13.953659,15.546383c0,0.843179 0.541185,1.204641 1.354586,1.204641l5.419069,0c0.811971,0 1.354233,-0.482362 1.354233,-1.204641c-0.406347,-13.376391 -9.347639,-22.294012 -22.081641,-22.294012c-13.276543,0 -22.082941,8.31507 -22.082941,20.726473l0,45.311378c0,12.412296 8.806436,20.746805 22.082941,20.746805l0.00013,-0.000016l0,-0.000001zm55.408047,-0.964095l14.088513,0c0.813031,0 1.354586,-0.502198 1.354586,-1.224476l0,-4.338728c0,-0.722294 -0.541555,-1.204971 -1.354586,-1.204971l-14.088513,0c-8.263821,0 -13.953659,-6.025417 -13.953659,-13.978711l0,-18.920074l24.790813,0c0.813031,0 1.355646,-0.481717 1.355646,-1.204955l0,-4.338101c0,-0.723221 -0.542615,-1.204641 -1.355646,-1.204641l-24.790813,0l0,-17.715368c0,-7.953294 5.689839,-13.978711 13.953659,-13.978711l14.088513,0c0.813031,0 1.354586,-0.481734 1.354586,-1.204955l0,-4.337787c0,-0.723237 -0.541555,-1.204955 -1.354586,-1.204955l-14.088513,0c-13.005773,0 -22.08257,9.037663 -22.08257,20.726473l0,43.383153c0,11.688761 9.076852,20.746805 22.08257,20.746805l0,0.000001zm64.078551,-84.615589l-40.641301,0c-0.813031,0 -1.355292,0.48142 -1.355292,1.204955l0,4.337787c0,0.723221 0.542261,1.205897 1.355292,1.205897l16.256149,0l0,76.400674c0,0.723551 0.542615,1.205913 1.354586,1.205913l5.419069,0c0.813049,0 1.354233,-0.482362 1.354233,-1.205913l0,-76.400674l16.257208,0c0.813403,0 1.354605,-0.482676 1.354605,-1.205897l0,-4.337787c0,-0.723535 -0.541203,-1.204955 -1.354605,-1.204955l0.000055,0zm32.106638,84.615589l14.088513,0c0.813031,0 1.354586,-0.502198 1.354586,-1.224476l0,-4.338728c0,-0.722294 -0.541555,-1.204971 -1.354586,-1.204971l-14.088513,0c-8.263821,0 -13.953659,-6.025417 -13.953659,-13.978711l0,-18.920074l24.790813,0c0.813031,0 1.355646,-0.481717 1.355646,-1.204955l0,-4.338101c0,-0.723221 -0.542615,-1.204641 -1.355646,-1.204641l-24.790813,0l0,-17.715368c0,-7.953294 5.689839,-13.978711 13.953659,-13.978711l14.088513,0c0.813031,0 1.354586,-0.481734 1.354586,-1.204955l0,-4.337787c0,-0.723237 -0.541555,-1.204955 -1.354586,-1.204955l-14.088513,0c-13.005773,0 -22.08257,9.037663 -22.08257,20.726473l0,43.383153c0,11.688761 9.076852,20.746805 22.08257,20.746805l0,0.000001zm50.125171,-92.810171c8.67015,0 14.360007,-4.700504 15.037477,-11.689702c0,-0.843196 -0.542615,-1.204955 -1.354586,-1.204955l-4.471185,0c-0.813049,0 -1.354586,0.361759 -1.490519,1.204955c-0.406329,3.494607 -3.251435,5.543683 -7.721207,5.543683c-4.471185,0 -7.316271,-2.049092 -7.722618,-5.543683c-0.134855,-0.843196 -0.677469,-1.204955 -1.489441,-1.204955l-4.471185,0c-0.813031,0 -1.354233,0.482362 -1.354233,1.204955c0.677117,7.110098 6.502887,11.689702 15.037477,11.689702l0.000018,0l0.000001,0zm13.953659,9.399438l0,76.642508l-13.54733,0c-8.53459,0 -13.953659,-6.025417 -13.953659,-14.581346l0,-62.061229c0,-0.723551 -0.542261,-1.204955 -1.354233,-1.204955l-5.419069,0c-0.813403,0 -1.354586,0.481404 -1.354586,1.204955l0,62.061229c0,12.291394 8.669444,21.349489 22.081641,21.349489l17.610735,0c2.573964,0 4.064483,-1.345394 4.064483,-3.63503l0,-79.775604c0,-0.723551 -0.541555,-1.204955 -1.354605,-1.204955l-5.419069,0c-0.813031,0 -1.354233,0.481404 -1.354233,1.204955l-0.000075,-0.000016l0.000001,0z"/>
    </g>
    <g stroke="null" id="svg_3">
     <g stroke="null" id="svg_4">
      <path stroke="null" id="_154613960" class="fil1" d="m308.429447,21.564631c62.831466,-27.097631 135.835289,-14.163219 182.491997,27.523278l49.430364,-21.320892l4.266588,8.032639l-55.616731,23.990156l-9.329929,-8.015943l-4.309069,-3.422818l-4.440021,-3.261915l-4.565324,-3.095986l-4.688156,-2.932257l-4.801064,-2.766957l-4.908659,-2.596003l-5.008838,-2.423463l-5.104762,-2.252493l-5.193606,-2.075855l-5.276428,-1.898901l-5.349347,-1.720062l-5.420482,-1.538083l-5.485261,-1.35546l-5.542254,-1.170011l-5.589325,-0.982031l-5.634982,-0.795638l-5.673559,-0.602651l-5.703998,-0.412771l-5.728082,-0.214097l-5.747537,-0.019207l-5.760285,0.180722l-5.764893,0.379727l-5.765599,0.582171l-5.760637,0.786828l-5.747185,0.992114l-5.733024,1.200855l-5.702939,1.410869l-5.677109,1.623411l-5.645239,1.839392l-5.599934,2.054447l-5.556042,2.276727l-5.448801,2.470376l-5.280666,2.63756l-5.118216,2.804116l-4.951492,2.961548l-4.779472,3.109211l-4.606745,3.259402l-4.436491,3.400139l-4.260215,3.537421l-4.085371,3.667776l-3.907682,3.792147l-3.725033,3.908635l-3.540971,4.027022l-3.360106,4.13407l-3.166846,4.238293l-2.979959,4.334646l-2.791661,4.431296l-2.59238,4.510327l-2.399826,4.595969l-2.19772,4.669015l-1.999146,4.73892l-1.79704,4.801883l-1.588914,4.861705l-1.38573,4.911147l-1.169465,4.960885l-0.964536,5.000556l-0.748269,5.036774l-0.532711,5.065106l-0.309699,5.089356l-0.097689,5.106976l0.1306,5.121474l0.351844,5.126499l1.302202,11.479375l-57.136238,24.644744l-4.266236,-8.03201l50.766459,-21.896797c-7.902424,-58.401321 25.887378,-117.400531 88.715685,-144.505601l-0.000112,0.000198zm-99.400442,241.86182l57.897758,-24.972865l9.323908,8.014373l4.30801,3.423132l4.440727,3.259088l4.566383,3.100086l4.684254,2.931001l4.803889,2.764758l4.906187,2.596946l5.012722,2.425034l5.101212,2.249965l5.196784,2.077424l5.273585,1.899215l5.351819,1.718806l5.420482,1.538397l5.48279,1.356088l5.544372,1.169068l5.592148,0.984874l5.631804,0.791539l5.672147,0.604535l5.702939,0.410572l5.730199,0.216312l5.74436,0.016679l5.760991,-0.177268l5.768425,-0.381281l5.767012,-0.582815l5.757814,-0.784299l5.747537,-0.993684l5.730906,-1.200558l5.709666,-1.410869l5.674972,-1.623411l5.64418,-1.839079l5.602777,-2.054761l5.554983,-2.273272l5.444547,-2.47069l5.280666,-2.639444l5.117862,-2.804116l4.949373,-2.959664l4.777,-3.112054l4.612413,-3.258774l4.434372,-3.400139l4.26198,-3.536164l4.080055,-3.667462l3.908036,-3.791503l3.726092,-3.912733l3.545227,-4.025138l3.353379,-4.134699l3.173219,-4.238607l2.980313,-4.335588l2.79023,-4.425627l2.59238,-4.512526l2.396983,-4.595655l2.200898,-4.670585l1.998439,-4.738292l1.796315,-4.802826l1.590679,-4.861391l1.384337,-4.913345l1.172995,-4.959629l0.960652,-5.000556l0.748604,-5.034245l0.531651,-5.068578l0.316073,-5.089356l0.091334,-5.106976l-0.127794,-5.120515l-0.353239,-5.130913l-1.293003,-11.473706l54.854283,-23.662201l4.265883,8.031068l-48.48599,20.91508c7.900307,58.403139 -25.89091,117.401689 -88.717357,144.502461c-62.83035,27.099119 -135.831757,14.163848 -182.490696,-27.520138l-51.709531,22.304427l-4.266588,-8.032953l0.000185,0.000016l-0.000001,0.000003z"/>
      <path stroke="null" id="_154613888" class="fil1" d="m317.148452,37.558069l5.188644,-2.124022l5.232536,-1.920951l5.265093,-1.716294l5.299081,-1.513834l5.324204,-1.319574l5.339423,-1.11837l5.361017,-0.924407l5.376236,-0.733618l5.376236,-0.54187l5.37553,-0.356106l5.369863,-0.168457l5.365273,0.01858l5.339777,0.201814l5.324204,0.384769l5.294825,0.560433l5.261562,0.742445l5.215905,0.917498l5.171306,1.091609l5.121393,1.26666l5.061928,1.434804l4.994324,1.605145l4.922819,1.771703l4.850272,1.9392l4.76743,2.102616l4.673289,2.260676l4.583034,2.425348l4.477186,2.58025l4.374907,2.736112l4.258802,2.891014l4.143758,3.041206l4.017042,3.190455l14.207443,12.205753l61.802541,-26.657933l4.267648,8.034208l-67.989281,29.323231l-19.084251,-16.395563l-3.728935,-2.959978l-3.845022,-2.822068l-3.952634,-2.68196l-4.060934,-2.540578l-4.157564,-2.396371l-4.2549,-2.246195l-4.341626,-2.103873l-4.423037,-1.949912l-4.506213,-1.802564l-4.574522,-1.647331l-4.636124,-1.489584l-4.701962,-1.334368l-4.758584,-1.175366l-4.801418,-1.014149l-4.844603,-0.851692l-4.886006,-0.687962l-4.914325,-0.523918l-4.945117,-0.355791l-4.957159,-0.18702l-4.973438,-0.017952l-4.982636,0.156804l-4.988303,0.329955l-4.990776,0.504727l-4.985832,0.67978l-4.972025,0.859246l-4.956806,1.036812l-4.936273,1.222591l-4.920346,1.406471l-4.894146,1.595376l-4.854862,1.781141l-4.826189,1.975418l-4.734519,2.147644l-4.581603,2.289636l-4.437902,2.432588l-4.289594,2.563572l-4.136324,2.69077l-3.984131,2.81734l-3.836882,2.943283l-3.68822,3.061042l-3.53497,3.173133l-3.381698,3.280494l-3.223838,3.383774l-3.062783,3.486094l-2.909159,3.576465l-2.742807,3.670602l-2.581751,3.75593l-2.419282,3.842201l-2.249752,3.913676l-2.078792,3.981366l-1.905341,4.045288l-1.735457,4.112664l-1.557044,4.163048l-1.377238,4.215944l-1.200982,4.257814l-1.017274,4.300627l-0.835329,4.335588l-0.642088,4.361722l-0.466853,4.386269l-0.269728,4.409262l-0.082117,4.423742l0.111143,4.431296l0.308306,4.438851l2.661043,23.481362l-69.875611,30.139647l-4.267294,-8.03358l63.508248,-27.393518l-1.984279,-17.478989l-0.329192,-4.780163l-0.120341,-4.778278l0.086373,-4.765367l0.292362,-4.749929l0.498369,-4.72601l0.695885,-4.69609l0.901874,-4.671858l1.094429,-4.6284l1.287689,-4.584001l1.486616,-4.539617l1.677052,-4.482309l1.868174,-4.42437l2.050825,-4.360134l2.238417,-4.288361l2.423891,-4.213101l2.603344,-4.134699l2.780678,-4.04623l2.956248,-3.953662l3.133229,-3.856367l3.302054,-3.75593l3.47372,-3.646353l3.644328,-3.537106l3.812465,-3.420289l3.97209,-3.297189l4.136324,-3.170289l4.297027,-3.041206l4.458789,-2.900783l4.619121,-2.762245l4.777,-2.616782l4.931311,-2.464078l5.093073,-2.309787l0,0.000116l0,0.000001zm-116.651249,209.805273l70.271237,-30.311559l19.079234,16.395877l3.72468,2.959664l3.845374,2.823324l3.955812,2.683844l4.05456,2.539951l4.160407,2.394173l4.253488,2.249651l4.343745,2.101988l4.424448,1.952111l4.504094,1.800662l4.57311,1.647017l4.639302,1.491799l4.70161,1.333426l4.75576,1.174093l4.803536,1.014165l4.848135,0.85389l4.881416,0.686078l4.917169,0.524861l4.935567,0.35389l4.962827,0.187351l4.973084,0.015423l4.986538,-0.15553l4.993265,-0.328402l4.986892,-0.504083l4.979811,-0.679152l4.971319,-0.858932l4.96318,-1.038398l4.939821,-1.221964l4.918229,-1.40867l4.892379,-1.590963l4.860176,-1.784926l4.823716,-1.971632l4.726027,-2.146073l4.58268,-2.291223l4.438962,-2.431018l4.282867,-2.56263l4.138461,-2.692341l3.992625,-2.823952l3.835469,-2.94077l3.68469,-3.055687l3.530008,-3.171248l3.382052,-3.28428l3.225957,-3.387543l3.067038,-3.483268l2.906688,-3.579919l2.749181,-3.672487l2.580339,-3.758128l2.417517,-3.834018l2.242672,-3.910518l2.083382,-3.983251l1.907478,-4.052842l1.734379,-4.108564l1.554945,-4.161147l1.379357,-4.215944l1.201334,-4.265683l1.01692,-4.294659l0.832505,-4.333373l0.649856,-4.364863l0.460145,-4.388484l0.273612,-4.408634l0.07998,-4.42123l-0.111849,-4.434768l-0.305816,-4.438851l-2.646883,-23.479875l67.58715,-29.153302l4.266942,8.033267l-61.222018,26.406511l1.971885,17.477336l0.327762,4.785518l0.120713,4.777336l-0.087078,4.765681l-0.29344,4.748359l-0.495174,4.727894l-0.699769,4.698305l-0.89446,4.665874l-1.097606,4.629028l-1.29371,4.588415l-1.482732,4.538659l-1.678111,4.482937l-1.866409,4.421544l-2.054355,4.362978l-2.237358,4.29056l-2.419282,4.211216l-2.60405,4.129359l-2.77962,4.04466l-2.961544,3.958076l-3.13074,3.858268l-3.305956,3.755302l-3.472308,3.646997l-3.647171,3.539304l-3.806091,3.41809l-3.972796,3.296875l-4.137049,3.170289l-4.299145,3.041206l-4.459496,2.902982l-4.618062,2.76099l-4.77594,2.617095l-4.933448,2.464078l-5.083875,2.308845l-5.188644,2.124022l-5.229711,1.917794l-5.271466,1.716294l-5.295179,1.515719l-5.323498,1.316416l-5.348289,1.120255l-5.361723,0.924738l-5.367744,0.735833l-5.379433,0.540283l-5.379785,0.355791l-5.37094,0.166242l-5.359252,-0.016992l-5.345798,-0.201203l-5.321027,-0.382554l-5.293414,-0.562962l-5.25766,-0.742115l-5.219436,-0.918439l-5.173778,-1.088153l-5.120687,-1.267603l-5.060516,-1.435747l-4.993265,-1.601691l-4.925308,-1.77643l-4.8499,-1.940457l-4.763899,-2.09979l-4.67788,-2.263817l-4.579131,-2.423133l-4.479323,-2.580879l-4.371005,-2.734541l-4.263058,-2.892585l-4.141639,-3.041206l-4.015982,-3.191083l-14.202853,-12.204811l-64.084497,27.642625l-4.266588,-8.03201l0.000149,-0.0001l-0.000006,0.000003z"/>
     </g>
     <circle stroke="null" id="_154613792" class="fil2" transform="matrix(2.4017215158569076,-7.262935412064461,8.164849687923649,2.136420009450318,155.6289308435653,157.07237439945743) " r="11.8322" cy="24.748658" cx="8.363862"/>
     <path stroke="null" id="_154613720" class="fil3" d="m281.177913,123.920383c15.686274,-47.436144 71.636137,-74.594771 124.963478,-60.673865l-56.835198,171.870688c-53.307272,-13.981555 -83.814311,-63.762992 -68.128465,-111.197484l0.000185,0.000661z"/>
     <path stroke="null" id="_154613648" class="fil4" d="m461.454295,133.302811c15.174096,38.662185 -7.766511,80.961466 -51.228797,94.458708c-43.463085,13.498234 -91.014551,-6.908598 -106.189373,-45.57123c-15.172685,-38.660367 7.768277,-80.959814 51.231584,-94.457717c43.461598,-13.497606 91.012693,6.909855 106.186585,45.570239z" mask="url(#id0)"/>
     <g stroke="null" id="svg_5">
      <polygon stroke="null" id="_154613576" class="fil1" points="598.6522560119629,105.64977264404297 553.8474464416504,22.58685874938965 562.8024635314941,18.656841278076172 607.6816749572754,101.85448455810547 "/>
      <polygon stroke="null" id="_154613504" class="fil1" points="618.9817237854004,97.28228759765625 574.1770362854004,14.220850944519043 583.1338233947754,10.290839195251465 628.0129127502441,93.48699951171875 "/>
      <polygon stroke="null" id="_154613432" class="fil1" points="638.2984352111816,88.9445571899414 593.4936866760254,5.881789684295654 602.4505348205566,1.9517858028411865 647.3296852111816,85.14925384521484 "/>
     </g>
     <g stroke="null" id="svg_6">
      <polygon stroke="null" id="_154613336" class="fil1" points="153.68068313598633,296.45556640625 108.87554550170898,213.39398193359375 117.83207321166992,209.463134765625 162.7109718322754,292.6602783203125 "/>
      <polygon stroke="null" id="_154613264" class="fil1" points="174.0112648010254,288.0897521972656 129.20615005493164,205.02813720703125 138.16266250610352,201.09732055664062 183.04133987426758,284.2944641113281 "/>
      <polygon stroke="null" id="_154613192" class="fil1" points="193.32818984985352,279.7503662109375 148.52290725708008,196.68875122070312 157.47938919067383,192.75791931152344 202.35824966430664,275.9550476074219 "/>
     </g>
    </g>
   </g>
  </g>
 </g>
</svg>