<?xml version="1.0" encoding="utf-8"?>
<!-- Generator: Adobe Illustrator 23.0.3, SVG Export Plug-In . SVG Version: 6.00 Build 0)  -->
<svg version="1.1" id="Слой_1" xmlns="http://www.w3.org/2000/svg" xmlns:xlink="http://www.w3.org/1999/xlink" x="0px" y="0px"
	 viewBox="0 0 256 57" style="enable-background:new 0 0 256 57;" xml:space="preserve">
<style type="text/css">
	.st0{fill:url(#SVGID_1_);}
	.st1{fill:url(#SVGID_2_);}
	.st2{fill:url(#SVGID_3_);}
	.st3{fill:#FFFFFF;}
	.st4{fill:url(#SVGID_4_);}
	.st5{opacity:0.11;fill:#FFFFFF;}
	.st6{fill:#1D1D1B;}
	.st7{fill:url(#SVGID_5_);}
	.st8{fill:url(#SVGID_6_);}
	.st9{fill:url(#SVGID_7_);}
</style>
<g>
	<g>
		
			<linearGradient id="SVGID_1_" gradientUnits="userSpaceOnUse" x1="416.7247" y1="-597.234" x2="418.4077" y2="-669.0421" gradientTransform="matrix(-1 0 0 -1 438.5354 -609.0236)">
			<stop  offset="0.1919" style="stop-color:#58C0D7"/>
			<stop  offset="1" style="stop-color:#3F98CE"/>
		</linearGradient>
		<path class="st0" d="M0,35.4C0,24,20.7,0,20.7,0s20.7,24,20.7,35.4s-9.3,20.7-20.7,20.7S0,46.8,0,35.4z"/>
		<linearGradient id="SVGID_2_" gradientUnits="userSpaceOnUse" x1="22.3822" y1="-7.6167" x2="21.2818" y2="39.3347">
			<stop  offset="0.3868" style="stop-color:#58C0D7"/>
			<stop  offset="0.807" style="stop-color:#3AA3D1"/>
		</linearGradient>
		<path class="st1" d="M40.5,30.5C36.3,18.2,20.7,0.1,20.7,0.1S8.2,14.6,2.6,26.5c5.1,0.2,11.3,2.4,21.1,8.1
			C34,40.7,38.9,33.7,40.5,30.5z"/>
		<linearGradient id="SVGID_3_" gradientUnits="userSpaceOnUse" x1="20.2041" y1="56.7624" x2="21.3634" y2="7.2987">
			<stop  offset="0.2356" style="stop-color:#58C0D7"/>
			<stop  offset="0.6072" style="stop-color:#3F98CE"/>
		</linearGradient>
		<path class="st2" d="M40.5,30.6c-1.6,3.1-6.5,10.1-16.9,4c-9.7-5.7-15.9-7.9-21.1-8.1c0,0,0,0,0,0c0,0,0,0,0,0
			C1,29.8,0,32.9,0,35.4c0,11.4,9.3,20.7,20.7,20.7s20.7-9.3,20.7-20.7C41.4,34,41.1,32.3,40.5,30.6z"/>
		<path class="st3" d="M14.8,29.3c0.8,0.1,1.6,0.4,2.3,0.8c0.1,0,0.2,0,0.3,0.1c1,0.2,2,0.3,3.1,0.5c2.1,0.4,4,0.9,6,1.7
			c0,0,0,0,0,0c0.3,0,0.6,0.1,0.9,0.1c1-1.8,1.6-3.6,1.6-4.9c-0.1-4.4-3.8-7.9-8.2-7.8c-4.4,0.1-7.9,3.8-7.8,8.2
			c0,0.3,0.1,0.5,0.1,0.8C13.6,29,14.2,29.1,14.8,29.3z"/>
		<linearGradient id="SVGID_4_" gradientUnits="userSpaceOnUse" x1="26.2301" y1="24.4567" x2="25.9159" y2="37.8634">
			<stop  offset="0.1919" style="stop-color:#58C0D7"/>
			<stop  offset="1" style="stop-color:#3F98CE"/>
		</linearGradient>
		<path class="st4" d="M11.7,28.6c3.4,1.3,7.3,3.2,12.1,6c10.3,6,16.7,0.6,16.8-4C37.1,22.5,23.3,30.3,11.7,28.6z"/>
		<path class="st5" d="M21.1,19.9c-4.4,0-8,3.5-8,7.8c0,0.4,0,0.8,0.1,1.2c3.1,1.3,6.7,3.1,11,5.6c0.1,0.1,0.3,0.1,0.4,0.2
			c2.7-1.3,4.6-4,4.6-7.1C29.1,23.4,25.5,19.9,21.1,19.9z"/>
		<path class="st5" d="M21.3,15.1c-7,0-12.6,5.5-12.6,12.4c4.1,1.1,8.9,3.4,15.3,7.1c2.1,1.2,3.9,1.9,5.6,2.2
			c2.7-2.3,4.4-5.6,4.4-9.3C33.9,20.6,28.2,15.1,21.3,15.1z"/>
		<path class="st5" d="M29,10.6c-2.5-1.1-5.2-1.7-8.1-1.7c-3.2,0-6.1,0.8-8.7,2.1C8.7,15.7,5,21.3,2.6,26.5
			c5.1,0.2,11.3,2.4,21.1,8.1c9.2,5.4,17,0.7,16.8-4.2C38.3,24,33.2,16.4,29,10.6z"/>
		<circle class="st5" cx="10.4" cy="47.9" r="2.2"/>
		<circle class="st5" cx="7.2" cy="32.9" r="0.7"/>
		<circle class="st5" cx="14" cy="37.3" r="1.1"/>
	</g>
	<g>
		<path class="st6" d="M134.7,34h-1.1v-8.5h-3v-1h7.1v1h-3V34z"/>
		<path class="st6" d="M146.1,34h-5.3v-9.5h5.3v1h-4.2v3.1h4v1h-4V33h4.2V34z"/>
		<path class="st6" d="M156.1,34h-1.3l-2.6-4.2l-2.6,4.2h-1.2l3.2-5l-3-4.6h1.2l2.4,3.8l2.4-3.8h1.2l-3,4.5L156.1,34z"/>
		<path class="st6" d="M166.3,34h-1.1v-4.5h-5V34h-1.1v-9.5h1.1v4.1h5v-4.1h1.1V34z"/>
		<path class="st6" d="M178.8,29.2c0,1.5-0.4,2.7-1.2,3.6c-0.8,0.9-1.8,1.3-3.2,1.3c-1.4,0-2.5-0.4-3.2-1.3
			c-0.8-0.9-1.1-2.1-1.1-3.6c0-1.6,0.4-2.8,1.1-3.6c0.8-0.9,1.9-1.3,3.3-1.3c1.4,0,2.4,0.4,3.2,1.3
			C178.4,26.5,178.8,27.7,178.8,29.2z M171.2,29.2c0,1.3,0.3,2.3,0.8,2.9c0.5,0.7,1.3,1,2.4,1c1.1,0,1.9-0.3,2.4-1
			c0.5-0.7,0.8-1.6,0.8-2.9c0-1.3-0.3-2.3-0.8-2.9c-0.5-0.7-1.3-1-2.4-1c-1.1,0-1.9,0.3-2.4,1C171.5,26.9,171.2,27.9,171.2,29.2z"/>
		<path class="st6" d="M189.3,34h-1.1v-8.5h-3.1l-0.2,1.6c-0.3,2.1-0.5,3.6-0.7,4.6c-0.2,1-0.5,1.6-0.8,2c-0.3,0.4-0.8,0.6-1.3,0.6
			c-0.3,0-0.6-0.1-0.9-0.2V33c0.2,0.1,0.5,0.2,0.7,0.2c0.2,0,0.4-0.1,0.6-0.3c0.2-0.2,0.3-0.5,0.5-1c0.1-0.5,0.3-1.4,0.5-2.7
			c0.2-1.3,0.4-2.9,0.7-4.8h5.1V34z"/>
		<path class="st6" d="M201.8,29.2c0,1.5-0.4,2.7-1.2,3.6c-0.8,0.9-1.8,1.3-3.2,1.3c-1.4,0-2.5-0.4-3.2-1.3
			c-0.8-0.9-1.1-2.1-1.1-3.6c0-1.6,0.4-2.8,1.1-3.6c0.8-0.9,1.9-1.3,3.3-1.3c1.4,0,2.4,0.4,3.2,1.3
			C201.4,26.5,201.8,27.7,201.8,29.2z M194.2,29.2c0,1.3,0.3,2.3,0.8,2.9c0.5,0.7,1.3,1,2.4,1c1.1,0,1.9-0.3,2.4-1
			c0.5-0.7,0.8-1.6,0.8-2.9c0-1.3-0.3-2.3-0.8-2.9c-0.5-0.7-1.3-1-2.4-1c-1.1,0-1.9,0.3-2.4,1C194.5,26.9,194.2,27.9,194.2,29.2z"/>
		<path class="st6" d="M210.9,24.4v1h-4.2V34h-1.1v-9.5H210.9z"/>
		<path class="st6" d="M214.1,24.4h1v5.3c0,1,0,1.9-0.1,2.7h0.1l5.3-8h1.2V34h-1v-5.2c0-0.9,0-1.8,0.1-2.8h-0.1l-5.4,8h-1.2V24.4z"
			/>
		<path class="st6" d="M225.9,24.4h1v5.3c0,1,0,1.9-0.1,2.7h0.1l5.3-8h1.2V34h-1v-5.2c0-0.9,0-1.8,0.1-2.8h-0.1l-5.4,8h-1.2V24.4z"
			/>
	</g>
	<g>
		<linearGradient id="SVGID_5_" gradientUnits="userSpaceOnUse" x1="63.1807" y1="-3.5823" x2="61.7227" y2="57.6529">
			<stop  offset="0.2356" style="stop-color:#58C0D7"/>
			<stop  offset="0.6072" style="stop-color:#3F98CE"/>
		</linearGradient>
		<path class="st7" d="M50,39.1V17.5c0-2.2,1.5-3.8,3.7-3.8s3.7,1.6,3.7,3.8v7h10.3v-7.1c0-2.2,1.5-3.7,3.7-3.7s3.7,1.5,3.7,3.7
			v21.7c0,2.2-1.6,3.8-3.7,3.8c-2.1,0-3.7-1.6-3.7-3.8v-8H57.3v8c0,2.2-1.6,3.8-3.7,3.8C51.5,42.9,50,41.3,50,39.1z"/>
		<linearGradient id="SVGID_6_" gradientUnits="userSpaceOnUse" x1="84.7943" y1="-3.0677" x2="83.3364" y2="58.1675">
			<stop  offset="0.2356" style="stop-color:#58C0D7"/>
			<stop  offset="0.6072" style="stop-color:#3F98CE"/>
		</linearGradient>
		<path class="st8" d="M90.1,48c0,1.2-0.9,2-2.1,2l-8.5,0c-1.2,0-2.1-0.9-2.1-2.1c0-0.7,0.3-1.3,0.9-1.8l4.7-3.8
			c1.7-1.4,2.2-2.1,2.2-3.3c0-1.1-0.6-1.8-1.7-1.8c-0.8,0-1.3,0.4-1.6,1.2c-0.1,0.3-0.1,0.5-0.2,0.8c-0.2,1.1-1,1.8-2.1,1.8
			c-1.2,0-2.2-1-2.2-2.3c0-0.4,0.1-0.9,0.2-1.4c0.7-2.4,3.1-4.1,6-4.1c3.4,0,5.9,2.3,5.9,5.5c0,2.2-1.1,3.8-4.2,6.3l-1.1,0.8h3.7
			C89.2,45.9,90.1,46.8,90.1,48z"/>
		<linearGradient id="SVGID_7_" gradientUnits="userSpaceOnUse" x1="106.3311" y1="-2.5549" x2="104.8731" y2="58.6803">
			<stop  offset="0.2356" style="stop-color:#58C0D7"/>
			<stop  offset="0.6072" style="stop-color:#3F98CE"/>
		</linearGradient>
		<path class="st9" d="M120.8,28.3c0,8.2-6.7,14.6-15.2,14.6s-15.1-6.4-15.1-14.6s6.6-14.6,15.1-14.6
			C114.1,13.7,120.8,20.2,120.8,28.3z M97.9,28.3c0,4.7,3.1,7.8,7.7,7.8c4.5,0,7.7-3.2,7.7-7.8c0-4.6-3.2-7.8-7.7-7.8
			C101,20.5,97.9,23.7,97.9,28.3z"/>
	</g>
</g>
</svg>
