<svg id="Слой_1" data-name="Слой 1" xmlns="http://www.w3.org/2000/svg" xmlns:xlink="http://www.w3.org/1999/xlink" viewBox="0 0 567.29 567.29"><defs><style>.cls-1,.cls-7{fill:none;}.cls-2{clip-path:url(#clip-path);}.cls-3{fill:#a6d7f6;}.cls-4{fill:#00acec;}.cls-5{fill:#fff;}.cls-6{fill:#91cef4;}.cls-7{stroke:#4bb8ef;stroke-miterlimit:10;stroke-width:12.58px;}.cls-8{fill:#f1f9fe;}.cls-9{fill:#4bb8ef;}</style><clipPath id="clip-path" transform="translate(0 0)"><rect class="cls-1" width="567.29" height="567.29"/></clipPath></defs><title>Vector Smart Object</title><g class="cls-2"><path class="cls-3" d="M283.64,559.05A275.41,275.41,0,0,1,88.9,88.9,275.4,275.4,0,1,1,478.38,478.38a273.57,273.57,0,0,1-194.74,80.67" transform="translate(0 0)"/><path class="cls-4" d="M283.64,16.48c147.56,0,267.17,119.61,267.17,267.16S431.2,550.81,283.64,550.81,16.48,431.19,16.48,283.64,136.09,16.48,283.64,16.48m0-16.48A283.72,283.72,0,0,0,173.23,545,283.71,283.71,0,0,0,394.05,22.3,281.73,281.73,0,0,0,283.64,0" transform="translate(0 0)"/><path class="cls-4" d="M283.64,540.53A256.88,256.88,0,0,1,102,102,256.88,256.88,0,1,1,465.29,465.29a255.21,255.21,0,0,1-181.65,75.24" transform="translate(0 0)"/><path class="cls-5" d="M283.64,28.26C424.69,28.26,539,142.6,539,283.64S424.69,539,283.64,539,28.26,424.69,28.26,283.64,142.6,28.26,283.64,28.26m0-3A258.45,258.45,0,0,0,183.07,521.72,258.45,258.45,0,0,0,384.22,45.56a256.87,256.87,0,0,0-100.58-20.3" transform="translate(0 0)"/><path class="cls-6" d="M473.64,283.64c0,104.94-85.06,190-190,190s-190-85.06-190-190,85.07-190,190-190,190,85.07,190,190" transform="translate(0 0)"/><circle class="cls-7" cx="283.64" cy="283.64" r="190"/><path class="cls-8" d="M283.64,469.14c-102.28,0-185.5-83.21-185.5-185.5s83.22-185.5,185.5-185.5,185.5,83.22,185.5,185.5-83.21,185.5-185.5,185.5" transform="translate(0 0)"/><path class="cls-3" d="M283.64,100.14a182.91,182.91,0,1,1-71.42,14.42,182.31,182.31,0,0,1,71.42-14.42m0-4c-103.55,0-187.5,84-187.5,187.5s84,187.5,187.5,187.5,187.5-83.94,187.5-187.5S387.2,96.14,283.64,96.14" transform="translate(0 0)"/><path class="cls-5" d="M210.4,462.93c-1.48-.61-3-1.23-4.42-1.88a1,1,0,0,0-1.31.52l-3,6.78h0a3.42,3.42,0,0,0,1.74,4.5,3.34,3.34,0,0,0,1.37.29,3.42,3.42,0,0,0,3.13-2l3-6.85a1,1,0,0,0,0-.77,1,1,0,0,0-.55-.55" transform="translate(0 0)"/><path class="cls-5" d="M337.65,470.71a1,1,0,0,0-.47-.62,1,1,0,0,0-.77-.1c-1.54.44-3.08.85-4.63,1.25a1,1,0,0,0-.62.46,1,1,0,0,0-.1.76l2,7.85a3.39,3.39,0,0,0,4.15,2.46,3.42,3.42,0,0,0,2.46-4.15Z" transform="translate(0 0)"/><path class="cls-5" d="M345.68,88.44a3.64,3.64,0,0,0-1.09-.16,3.42,3.42,0,0,0-3.19,2.37l-2.06,6.44a1,1,0,0,0,.06.77,1,1,0,0,0,.6.5q2.29.69,4.57,1.45a1.13,1.13,0,0,0,.32,0,1,1,0,0,0,.45-.11,1,1,0,0,0,.5-.59l2.06-6.42a3.42,3.42,0,0,0-2.22-4.3" transform="translate(0 0)"/><path class="cls-5" d="M374.62,99.92a3.59,3.59,0,0,0-1.58-.36,3.39,3.39,0,0,0-3,1.9l-3.1,6.22a1,1,0,0,0-.05.77,1,1,0,0,0,.51.58q2.18,1,4.3,2.13a1,1,0,0,0,.46.11,1.12,1.12,0,0,0,.31,0,1,1,0,0,0,.58-.51l3.09-6.21a3.38,3.38,0,0,0,.18-2.61,3.43,3.43,0,0,0-1.71-2" transform="translate(0 0)"/><path class="cls-5" d="M365.17,460.45a.94.94,0,0,0-.55-.54,1,1,0,0,0-.78,0q-2.19,1-4.39,1.94a1,1,0,0,0-.53,1.31l3.22,7.57a3.44,3.44,0,0,0,3.15,2.07,3.47,3.47,0,0,0,1.33-.27,3.42,3.42,0,0,0,1.8-4.48Z" transform="translate(0 0)"/><path class="cls-5" d="M315.35,81.47a4,4,0,0,0-.6,0,3.42,3.42,0,0,0-3.31,2.88l-1,6.53a1.06,1.06,0,0,0,.18.75,1,1,0,0,0,.67.39c1.59.23,3.17.47,4.74.74h.17a1,1,0,0,0,.58-.18,1,1,0,0,0,.4-.66l1-6.51a3.41,3.41,0,0,0-2.83-3.91" transform="translate(0 0)"/><path class="cls-5" d="M390.81,446.15a1,1,0,0,0-1.4-.31q-2,1.31-4.05,2.58a1,1,0,0,0-.44.62,1,1,0,0,0,.12.75l4.4,7.1a3.36,3.36,0,0,0,2.12,1.52,3,3,0,0,0,.78.1,3.42,3.42,0,0,0,2.9-5.21Z" transform="translate(0 0)"/><path class="cls-5" d="M308.88,476.67a1,1,0,0,0-1.12-.89c-1.58.2-3.17.37-4.77.53a1,1,0,0,0-.9,1.1l.8,8a3.4,3.4,0,0,0,3.38,3.08l.35,0a3.41,3.41,0,0,0,3.06-3.73Z" transform="translate(0 0)"/><path class="cls-5" d="M267.22,476.57c-1.6-.13-3.19-.29-4.78-.46a1,1,0,0,0-1.1.88l-.86,7.76a3.41,3.41,0,0,0,3,3.77l.38,0a3.39,3.39,0,0,0,3.39-3l.87-7.83a1,1,0,0,0-.22-.75,1,1,0,0,0-.69-.36" transform="translate(0 0)"/><path class="cls-5" d="M253.72,81.54l-.44,0a3.41,3.41,0,0,0-2.88,3.87l.91,6.23a1,1,0,0,0,.4.67,1,1,0,0,0,.59.19h.16c1.58-.26,3.16-.49,4.75-.71a1,1,0,0,0,.66-.39,1,1,0,0,0,.19-.75l-.91-6.22a3.45,3.45,0,0,0-3.43-2.92" transform="translate(0 0)"/><path class="cls-5" d="M284.31,79.17h-.08a3.42,3.42,0,0,0-3.35,3.39l0,6.47a1,1,0,0,0,.29.72,1.17,1.17,0,0,0,.72.29h.74c1.11,0,2.23,0,3.35,0h.72a1,1,0,0,0,.7-.28,1,1,0,0,0,.3-.71l0-6.46a3.41,3.41,0,0,0-3.39-3.43" transform="translate(0 0)"/><path class="cls-5" d="M423.23,134.3a3.39,3.39,0,0,0-2.4,1l-5.12,5.33a1,1,0,0,0-.27.72,1,1,0,0,0,.31.7q1.75,1.64,3.47,3.32a1,1,0,0,0,.7.29h0a1,1,0,0,0,.71-.31l5.11-5.32a3.42,3.42,0,0,0-.1-4.83,3.48,3.48,0,0,0-2.42-.95" transform="translate(0 0)"/><path class="cls-5" d="M458.26,387.45l-7.18-4.51a1,1,0,0,0-1.38.33c-.83,1.37-1.67,2.74-2.53,4.08a1,1,0,0,0,.32,1.39l7.15,4.48a3.34,3.34,0,0,0,1.8.53,3.22,3.22,0,0,0,.76-.09,3.4,3.4,0,0,0,1.06-6.21" transform="translate(0 0)"/><path class="cls-5" d="M481.14,330.84,473,328.71a1,1,0,0,0-1.22.73c-.38,1.56-.78,3.11-1.19,4.65a1,1,0,0,0,.1.76,1,1,0,0,0,.61.46l8.07,2.13a3.72,3.72,0,0,0,.88.11,3.44,3.44,0,0,0,1.7-.46,3.41,3.41,0,0,0-.84-6.25" transform="translate(0 0)"/><path class="cls-5" d="M401.49,115.65a3.49,3.49,0,0,0-2-.63,3.44,3.44,0,0,0-2.73,1.45l-4.13,5.87a1,1,0,0,0-.17.75,1,1,0,0,0,.42.65q2,1.37,3.93,2.76a1,1,0,0,0,.58.19h.17a1.05,1.05,0,0,0,.65-.41l4.13-5.87a3.42,3.42,0,0,0-.82-4.75" transform="translate(0 0)"/><path class="cls-5" d="M485.91,300.59l-8.29-.87a1,1,0,0,0-.74.22,1.06,1.06,0,0,0-.36.68c-.14,1.6-.3,3.19-.47,4.78a1,1,0,0,0,.21.74,1,1,0,0,0,.68.37l8.25.87.35,0a3.41,3.41,0,0,0,.37-6.81" transform="translate(0 0)"/><path class="cls-5" d="M471.85,360h0l-7.73-3.35a1,1,0,0,0-1.32.54q-.92,2.22-1.88,4.41a1,1,0,0,0,0,.77,1,1,0,0,0,.53.56l7.7,3.33a3.43,3.43,0,0,0,1.36.29,3.29,3.29,0,0,0,1.26-.25,3.42,3.42,0,0,0,.1-6.3" transform="translate(0 0)"/><path class="cls-5" d="M414,428.18a1,1,0,0,0-.69-.35,1,1,0,0,0-.73.26c-1.2,1.06-2.4,2.11-3.62,3.15a1,1,0,0,0-.35.68,1,1,0,0,0,.23.73l5.48,6.41a3.41,3.41,0,0,0,5.19-4.43Z" transform="translate(0 0)"/><path class="cls-5" d="M238.3,471.92c-1.56-.37-3.11-.77-4.65-1.18a1,1,0,0,0-1.22.71l-2,7.34a3.42,3.42,0,0,0,2.41,4.18,3.26,3.26,0,0,0,.87.12,3.42,3.42,0,0,0,3.3-2.53l2-7.41a1,1,0,0,0-.1-.77,1,1,0,0,0-.63-.46" transform="translate(0 0)"/><path class="cls-5" d="M434.25,407a.94.94,0,0,0-.73-.24,1,1,0,0,0-.69.36q-1.53,1.85-3.11,3.66a1,1,0,0,0,.1,1.41l6.4,5.53a3.38,3.38,0,0,0,2.22.83h.26a3.38,3.38,0,0,0,2.33-1.17,3.43,3.43,0,0,0-.35-4.82Z" transform="translate(0 0)"/><path class="cls-5" d="M446.59,158.29a3.54,3.54,0,0,0-2.77-1.34,3.4,3.4,0,0,0-2,.71l-6,4.59a1,1,0,0,0-.38.68,1,1,0,0,0,.21.74q1.49,1.88,2.93,3.8a1,1,0,0,0,.66.39h.14a1,1,0,0,0,.61-.21l6-4.59a3.42,3.42,0,0,0,.63-4.78" transform="translate(0 0)"/><path class="cls-5" d="M96.93,336.2a1.06,1.06,0,0,0,.1-.78c-.43-1.54-.83-3.08-1.22-4.64a1,1,0,0,0-1.22-.72l-6.14,1.53h0a3.38,3.38,0,0,0-2.1,1.56,3.42,3.42,0,0,0,3.76,5.06l6.2-1.55a1,1,0,0,0,.62-.46" transform="translate(0 0)"/><path class="cls-5" d="M227.23,90.93A3.41,3.41,0,0,0,224,88.52h-.05a3.09,3.09,0,0,0-.95.15,3.41,3.41,0,0,0-2.26,4.26l1.8,5.88a1,1,0,0,0,.49.59,1.12,1.12,0,0,0,.47.11.87.87,0,0,0,.31-.05c1.52-.49,3-1,4.58-1.42a1,1,0,0,0,.59-.49,1,1,0,0,0,.08-.76Z" transform="translate(0 0)"/><path class="cls-5" d="M94.19,217.56l5.57,2.12a1,1,0,0,0,.35.06,1.07,1.07,0,0,0,.43-.09,1,1,0,0,0,.52-.58q.8-2.26,1.65-4.5a1,1,0,0,0-.58-1.29l-5.52-2.1a3.94,3.94,0,0,0-1.27-.22,3.41,3.41,0,0,0-3,4.81,3.34,3.34,0,0,0,1.9,1.79" transform="translate(0 0)"/><path class="cls-5" d="M86.28,247.14l5.9,1.26.21,0a1,1,0,0,0,.56-.17,1,1,0,0,0,.43-.65c.29-1.57.61-3.14.94-4.7a1,1,0,0,0-.14-.76,1,1,0,0,0-.63-.43l-5.84-1.25a4.13,4.13,0,0,0-.78-.08,3.41,3.41,0,0,0-.65,6.75" transform="translate(0 0)"/><path class="cls-5" d="M91.14,307.21a1,1,0,0,0,.22-.74c-.19-1.59-.35-3.18-.5-4.78a1,1,0,0,0-.36-.67,1,1,0,0,0-.73-.23l-6.19.58a3.41,3.41,0,0,0,.33,6.81l.31,0,6.24-.58a1,1,0,0,0,.68-.37" transform="translate(0 0)"/><path class="cls-5" d="M82.93,277.57l6.15.37h.06a1,1,0,0,0,.68-.26,1,1,0,0,0,.32-.71c.06-1.6.13-3.2.22-4.79a1,1,0,0,0-.94-1.06l-6.1-.36h-.25a3.41,3.41,0,0,0-.14,6.81" transform="translate(0 0)"/><path class="cls-5" d="M466.18,218.93a1,1,0,0,0,.52.57.9.9,0,0,0,.42.1,1,1,0,0,0,.34-.06l7.39-2.7a3.41,3.41,0,0,0,2-4.37,3.48,3.48,0,0,0-3.26-2.25,3.53,3.53,0,0,0-1.12.21l-7.4,2.71a1,1,0,0,0-.57.52,1,1,0,0,0,0,.77c.57,1.49,1.12,3,1.66,4.5" transform="translate(0 0)"/><path class="cls-5" d="M106.49,189.53l5.16,2.91a1,1,0,0,0,.49.13.84.84,0,0,0,.27,0A1,1,0,0,0,113,192q1.14-2.11,2.32-4.2a1,1,0,0,0-.37-1.36l-5.13-2.89a3.45,3.45,0,0,0-1.73-.44,3.41,3.41,0,0,0-1.62,6.38" transform="translate(0 0)"/><path class="cls-5" d="M473,241.71a1,1,0,0,0-.14.76c.34,1.56.66,3.12.95,4.7a1.06,1.06,0,0,0,.43.64,1,1,0,0,0,.56.17.62.62,0,0,0,.19,0l7.89-1.58a3.41,3.41,0,0,0-.73-6.76,3.37,3.37,0,0,0-.62.07l-7.89,1.58a1,1,0,0,0-.64.44" transform="translate(0 0)"/><path class="cls-5" d="M454.33,192.17a1,1,0,0,0,.6.48.9.9,0,0,0,.28,0,1,1,0,0,0,.49-.12l6.75-3.71a3.41,3.41,0,0,0-1.64-6.4h-.06a3.36,3.36,0,0,0-1.58.42l-6.77,3.71a1,1,0,0,0-.48.61,1,1,0,0,0,.09.77c.79,1.38,1.57,2.78,2.32,4.2" transform="translate(0 0)"/><path class="cls-5" d="M477.13,270.69a1,1,0,0,0-.25.73c.09,1.59.17,3.19.24,4.79a1,1,0,0,0,1,1h.05l8.19-.38a3.42,3.42,0,0,0,3.25-3.56,3.39,3.39,0,0,0-3.4-3.26H486l-8.2.38a1,1,0,0,0-.7.33" transform="translate(0 0)"/><path class="cls-5" d="M156.53,429.7a1,1,0,0,0-1.41.1l-4.65,5.32a3.42,3.42,0,0,0,.32,4.81,3.4,3.4,0,0,0,2.25.85h.23a3.37,3.37,0,0,0,2.34-1.16l4.7-5.37a1,1,0,0,0,.24-.74,1,1,0,0,0-.36-.69c-1.23-1-2.45-2.05-3.66-3.11" transform="translate(0 0)"/><path class="cls-5" d="M184.17,449.79q-2.07-1.25-4.09-2.52a1,1,0,0,0-1.38.3l-3.89,6.11h0a3.41,3.41,0,0,0,5.76,3.67l3.93-6.17a1,1,0,0,0-.33-1.39" transform="translate(0 0)"/><path class="cls-5" d="M175.54,122.62a1,1,0,0,0-.16-.75L172,117a3.42,3.42,0,0,0-4.74-.89,3.42,3.42,0,0,0-.89,4.75l3.4,4.94a1,1,0,0,0,.65.42l.17,0a1,1,0,0,0,.58-.19q1.95-1.4,3.94-2.74a1,1,0,0,0,.42-.65" transform="translate(0 0)"/><path class="cls-5" d="M198.64,101.85a3.42,3.42,0,0,0-3.14-1.94,3.52,3.52,0,0,0-1.42.34,3.41,3.41,0,0,0-1.59,4.56l2.63,5.45a1,1,0,0,0,.58.51,1.13,1.13,0,0,0,.32,0,1,1,0,0,0,.45-.11q2.13-1.08,4.31-2.11a1,1,0,0,0,.51-.57,1,1,0,0,0,0-.76Z" transform="translate(0 0)"/><path class="cls-5" d="M152.32,141a1,1,0,0,0-.27-.72L148,135.92h0a3.39,3.39,0,0,0-2.54-1.08,3.49,3.49,0,0,0-2.28.92,3.42,3.42,0,0,0-.15,4.83l4.08,4.36a1,1,0,0,0,.71.31h0a1,1,0,0,0,.7-.28q1.71-1.68,3.48-3.31a1,1,0,0,0,.32-.7" transform="translate(0 0)"/><path class="cls-5" d="M128.3,167.54a1,1,0,0,0,.67-.39q1.46-1.92,2.94-3.79a1,1,0,0,0,.21-.74,1,1,0,0,0-.37-.67l-4.64-3.65a3.51,3.51,0,0,0-2.17-.73,3.41,3.41,0,0,0-2,6.1l4.67,3.66a1,1,0,0,0,.61.22h.13" transform="translate(0 0)"/><path class="cls-5" d="M118.61,385a1,1,0,0,0-1.37-.33l-5.7,3.48a3.43,3.43,0,0,0-1.13,4.69,3.42,3.42,0,0,0,2.11,1.54,3.74,3.74,0,0,0,.81.1,3.4,3.4,0,0,0,1.77-.51l5.76-3.52a1,1,0,0,0,.45-.63,1,1,0,0,0-.13-.76q-1.31-2-2.57-4.06" transform="translate(0 0)"/><path class="cls-5" d="M105.13,358.76a1,1,0,0,0-1.31-.54l-6,2.5h0a3.41,3.41,0,0,0,1.33,6.56,3.36,3.36,0,0,0,1.31-.26l6-2.53a1,1,0,0,0,.54-.55,1,1,0,0,0,0-.78q-1-2.19-1.91-4.4" transform="translate(0 0)"/><path class="cls-5" d="M135.89,408.77a1,1,0,0,0-1.41-.12l-5.26,4.43a3.41,3.41,0,0,0,4.4,5.22l5.31-4.48a1,1,0,0,0,.36-.69,1,1,0,0,0-.25-.74q-1.6-1.78-3.15-3.62" transform="translate(0 0)"/></g><polygon class="cls-8" points="76.09 355.2 74.12 350.31 87.03 345.1 89.5 351.2 81.96 354.25 90.86 376.25 62.63 387.66 60.06 381.31 82.91 372.07 78.66 361.56 55.81 370.8 53.24 364.44 76.09 355.2"/><polygon class="cls-8" points="75.71 332.9 45.79 338.55 41.98 318.34 47.64 317.28 50.18 330.75 56.05 329.64 53.79 317.68 59.32 316.64 61.58 328.6 68.79 327.24 66.06 312.77 71.71 311.71 75.71 332.9"/><polygon class="cls-8" points="39.79 276.87 39.83 270.02 70.28 270.16 70.24 277.02 57.33 276.95 57.27 288.47 70.19 288.53 70.15 295.38 39.71 295.24 39.74 288.38 51.38 288.44 51.44 276.93 39.79 276.87"/><polygon class="cls-8" points="46.88 223.87 52.61 225 50.83 234.01 74.96 238.79 73.63 245.51 49.5 240.73 47.71 249.74 41.98 248.6 46.88 223.87"/><g class="cls-2"><path class="cls-8" d="M56.12,194.82q2.51-6.33,6.08-8.84t8.63-.5q5.11,2,6,6.35t-1.61,10.7l-.8,2,9.48,3.75-2.53,6.37-27.89-11A38,38,0,0,1,54.66,199c.51-1.6,1-3,1.46-4.15m5.59,1.74c-.18.47-.35.93-.5,1.39s-.28.86-.38,1.2L69,202.38l.79-2A11.56,11.56,0,0,0,70.87,195a3.72,3.72,0,0,0-2.69-3,4.34,4.34,0,0,0-2.13-.35,3.58,3.58,0,0,0-1.73.73,6,6,0,0,0-1.42,1.68,18.83,18.83,0,0,0-1.19,2.46" transform="translate(0 0)"/><path class="cls-8" d="M107.8,114.38c1.06.32,2.33.76,3.81,1.29s3.07,1.15,4.76,1.81,3.4,1.37,5.13,2.1l4.88,2q-.88-2.31-1.91-4.94c-.67-1.75-1.32-3.48-1.93-5.19s-1.17-3.31-1.67-4.81-.88-2.79-1.18-3.85l4.48-4.34c1.62,1.24,3.39,2.68,5.31,4.3s3.9,3.35,5.92,5.16,4,3.64,6,5.48,3.9,3.58,5.66,5.23l-4.79,4.65q-3.19-3.09-7-6.69t-7.82-7.11c.48,1.25,1,2.63,1.59,4.16s1.15,3,1.74,4.55,1.14,3,1.67,4.35,1,2.57,1.36,3.55l-3.44,3.33L126.92,128l-4.29-1.8-4.5-1.88L114,122.61q3.39,4.13,6.87,8t6.48,7.18l-4.79,4.65q-2.39-2.7-5.06-5.81c-1.78-2.06-3.55-4.14-5.3-6.21s-3.4-4.1-5-6.07-3-3.79-4.14-5.44Z" transform="translate(0 0)"/><polygon class="cls-8" points="161.23 108.52 144.93 82.8 162.3 71.79 165.38 76.65 153.8 83.99 157 89.04 167.28 82.52 170.29 87.27 160.01 93.79 163.94 99.98 176.37 92.1 179.45 96.97 161.23 108.52"/><polygon class="cls-8" points="203.6 52.84 205.8 58.25 197.3 61.71 206.57 84.5 200.22 87.09 190.95 64.3 182.44 67.76 180.24 62.35 203.6 52.84"/><path class="cls-8" d="M233,44.64q6.66-1.38,10.72.24t5.15,6.94q1.11,5.38-2,8.51T237,64.85l-2.1.43,2,10-6.72,1.38-6-29.4a38.13,38.13,0,0,1,4.53-1.56c1.61-.45,3-.8,4.27-1m1.6,5.63c-.49.1-1,.21-1.43.34l-1.21.34,1.77,8.61,2.11-.44a11.57,11.57,0,0,0,5.05-2,3.7,3.7,0,0,0,1-3.89,4.37,4.37,0,0,0-.87-2,3.66,3.66,0,0,0-1.56-1,6,6,0,0,0-2.19-.26,16.65,16.65,0,0,0-2.71.35" transform="translate(0 0)"/><path class="cls-8" d="M298.19,54.88A18.9,18.9,0,0,1,297,61.76a14.35,14.35,0,0,1-3.18,5,13.24,13.24,0,0,1-4.81,3,17.76,17.76,0,0,1-6,1,17.15,17.15,0,0,1-5.89-1,13.52,13.52,0,0,1-4.84-3,14,14,0,0,1-3.26-5,18.17,18.17,0,0,1-1.2-6.87,17.68,17.68,0,0,1,1.22-6.88,14.64,14.64,0,0,1,3.3-5,13.72,13.72,0,0,1,4.83-3A16.94,16.94,0,0,1,283,39a17.15,17.15,0,0,1,5.89,1,13.51,13.51,0,0,1,4.84,3A14.61,14.61,0,0,1,297,48a18.66,18.66,0,0,1,1.2,6.88m-23.25,0a13.94,13.94,0,0,0,.56,4,9.27,9.27,0,0,0,1.59,3.1,6.92,6.92,0,0,0,2.53,2,8.62,8.62,0,0,0,6.83,0A7,7,0,0,0,289,62a9.29,9.29,0,0,0,1.57-3.11,14,14,0,0,0,.54-4,14.24,14.24,0,0,0-.55-4.06A9.18,9.18,0,0,0,289,47.71a6.86,6.86,0,0,0-2.56-2A8,8,0,0,0,283,45a7.82,7.82,0,0,0-3.43.73,7.3,7.3,0,0,0-2.52,2,9.36,9.36,0,0,0-1.58,3.12,14.16,14.16,0,0,0-.54,4" transform="translate(0 0)"/><path class="cls-8" d="M333.2,50.73c-.5,1.9-1,3.81-1.57,5.71a48.63,48.63,0,0,1-1.89,5.46,28.52,28.52,0,0,1-2.5,4.76,14.16,14.16,0,0,1-3.43,3.63,12,12,0,0,1-4.64,2,16.29,16.29,0,0,1-6.14-.06l.52-6a10.15,10.15,0,0,0,5.11-.54A7.65,7.65,0,0,0,322,62.48a36.2,36.2,0,0,0,3.26-7.77q1.51-4.86,2.84-11l20.32,4.36L342,77.84l-6.7-1.44,5.18-24.1Z" transform="translate(0 0)"/><path class="cls-8" d="M392,81.61a18.71,18.71,0,0,1-3.89,5.78,14.31,14.31,0,0,1-4.95,3.21,13.14,13.14,0,0,1-5.63.76,17.72,17.72,0,0,1-5.88-1.56,17,17,0,0,1-4.94-3.35,13.5,13.5,0,0,1-3.17-4.73,14.24,14.24,0,0,1-.91-5.87,18.49,18.49,0,0,1,1.76-6.75,17.8,17.8,0,0,1,4-5.76,14.6,14.6,0,0,1,5.07-3.17,13.76,13.76,0,0,1,5.66-.77,16.46,16.46,0,0,1,5.68,1.47,16.77,16.77,0,0,1,4.94,3.35A13.17,13.17,0,0,1,392.87,69a14.37,14.37,0,0,1,.91,5.88A18.49,18.49,0,0,1,392,81.61M370.85,72a13.62,13.62,0,0,0-1.17,3.91,9.26,9.26,0,0,0,.17,3.47,7.07,7.07,0,0,0,1.47,2.87,8.06,8.06,0,0,0,2.84,2,7.94,7.94,0,0,0,3.39.76,6.84,6.84,0,0,0,3.14-.77,9.13,9.13,0,0,0,2.72-2.16,15.29,15.29,0,0,0,3.35-7.39,9.35,9.35,0,0,0-.16-3.49,7.09,7.09,0,0,0-1.49-2.88,8.08,8.08,0,0,0-2.82-2,7.74,7.74,0,0,0-3.42-.75,7.25,7.25,0,0,0-3.13.79A9.28,9.28,0,0,0,373,68.58,14.1,14.1,0,0,0,370.85,72" transform="translate(0 0)"/><polygon class="cls-8" points="405.78 108.46 400.2 104.47 417.92 79.71 434.82 91.81 431.45 96.53 420.12 88.42 405.78 108.46"/><path class="cls-8" d="M429.72,127.36l22.14-20.91,4.68,5-13.07,12.33c1.87-.32,3.85-.63,5.92-.93s4.1-.56,6.1-.77,3.9-.38,5.73-.49,3.42-.15,4.79-.11l3.83,4.06L447.7,146.4l-4.65-4.92,14.51-13.7a105.93,105.93,0,0,0-12,1.31c-4,.67-8,1.49-11.88,2.45Z" transform="translate(0 0)"/><path class="cls-8" d="M479.65,153.93a8.23,8.23,0,0,0-2.24,1.92,4.22,4.22,0,0,0-.85,2,4.68,4.68,0,0,0,.27,2.13,12.39,12.39,0,0,0,1.12,2.25c.38.6.8,1.22,1.28,1.88s1,1.3,1.54,2L493,158.43l3.63,5.81-25.83,16.13-3.63-5.82,8.65-5.4c-.63-.78-1.22-1.55-1.76-2.32s-1-1.5-1.5-2.22a23.43,23.43,0,0,1-2.23-4.54,8.91,8.91,0,0,1-.51-4.21A8.25,8.25,0,0,1,471.5,152a15.39,15.39,0,0,1,4.22-3.65l7.91-4.93,3.63,5.81Z" transform="translate(0 0)"/><polygon class="cls-8" points="478.97 196.87 507.32 185.77 514.82 204.92 509.46 207.02 504.46 194.25 498.9 196.43 503.33 207.77 498.09 209.81 493.66 198.48 486.82 201.16 492.19 214.86 486.83 216.96 478.97 196.87"/><path class="cls-8" d="M493.31,246.52c-.94-4.86-.29-8.83,1.92-11.89s5.81-5.07,10.79-6a18,18,0,0,1,6.85-.1,14.41,14.41,0,0,1,5.53,2.25,13.49,13.49,0,0,1,4,4.25,17.7,17.7,0,0,1,2.2,5.88,20.05,20.05,0,0,1,.38,3.51,24.3,24.3,0,0,1-.12,2.84,14.29,14.29,0,0,1-.39,2.09c-.16.56-.29,1-.39,1.23l-5.81-.89a16.16,16.16,0,0,0,.64-3.46,15.53,15.53,0,0,0-.28-4.26,9.42,9.42,0,0,0-1.1-2.94,7.07,7.07,0,0,0-2.17-2.32,8.39,8.39,0,0,0-3.31-1.27,12.85,12.85,0,0,0-4.53.16,15.71,15.71,0,0,0-3.77,1.19,8.3,8.3,0,0,0-2.81,2.06,7.17,7.17,0,0,0-1.54,3.05,9.63,9.63,0,0,0,0,4.11,17.79,17.79,0,0,0,.67,2.6,21.41,21.41,0,0,0,.81,2,12,12,0,0,0,.85,1.5c.29.42.55.8.8,1.14l-5,2.89a16.07,16.07,0,0,1-2.32-3.71,23.73,23.73,0,0,1-1.84-5.87" transform="translate(0 0)"/><path class="cls-8" d="M497.12,290.06c1-.62,2.06-1.35,3.21-2.18s2.31-1.74,3.48-2.7,2.29-2,3.37-3A31.32,31.32,0,0,0,510,279H497.13v-6.85l30.45,0V279H516.13c1.85,1.76,3.79,3.56,5.8,5.38s3.9,3.5,5.63,5v8.13q-3.7-3.11-7.11-6.26t-6.87-6.62a52.79,52.79,0,0,1-7.24,7,91,91,0,0,1-9.23,6.52Z" transform="translate(0 0)"/><path class="cls-8" d="M495.42,313.35l29.84,6.07-1.36,6.68-17.61-3.59q2,2,4.17,4.3t4.14,4.55c1.32,1.5,2.56,3,3.7,4.4s2.1,2.72,2.85,3.86L520,345.08,490.2,339l1.35-6.63,19.55,4a107.22,107.22,0,0,0-8-9.07q-4.31-4.37-8.85-8.3Z" transform="translate(0 0)"/><path class="cls-8" d="M477.81,372.56q2.85-.19,5.84-.59a18.54,18.54,0,0,0,5.43-1.52c-.25-.55-.63-1.27-1.13-2.17s-1-1.8-1.63-2.73-1.23-1.85-1.91-2.73-1.23-1.55-1.63-2l3-7.21a77.37,77.37,0,0,1,5,7q2.48,3.89,5.16,8.51l17.7-3.3-3.23,7.64-10.38,1.92,5.81,8.89-3,7.2-9.69-14.82a91.78,91.78,0,0,1-10.72,2.42c-3.14.49-5.75.83-7.83,1Z" transform="translate(0 0)"/><path class="cls-8" d="M103.49,448.49l21.32-21.73,4.87,4.77-12.59,12.83q2.79-.58,5.88-1.16t6.06-1c2-.28,3.89-.52,5.71-.7s3.42-.28,4.78-.3l4,3.91-21.33,21.73-4.83-4.73,14-14.24a104.25,104.25,0,0,0-11.94,1.76q-6,1.23-11.78,2.91Z" transform="translate(0 0)"/><path class="cls-8" d="M153.06,467.31l3.85,2.55a14.6,14.6,0,0,0,1.94,1.08,5.58,5.58,0,0,0,1.84.48,3.34,3.34,0,0,0,1.64-.29,3.14,3.14,0,0,0,1.34-1.22,2.48,2.48,0,0,0,.25-2.52,6.21,6.21,0,0,0-2.37-2.47,14.57,14.57,0,0,0-3.82-1.87,17.06,17.06,0,0,0-3.67-.67l1.16-5.72a16.2,16.2,0,0,1,4.51.86,21.49,21.49,0,0,1,5.09,2.56,18.12,18.12,0,0,1,3.5,3,11.17,11.17,0,0,1,2.14,3.37A7.48,7.48,0,0,1,171,470a8.21,8.21,0,0,1-1.41,3.68A6.83,6.83,0,0,1,167,476a7.58,7.58,0,0,1-3.83.8,13,13,0,0,1,.91,2.09,8.38,8.38,0,0,1,.42,2.22,7.55,7.55,0,0,1-.26,2.34,8,8,0,0,1-1.11,2.4c-1.8,2.71-4.06,4-6.8,4s-5.81-1.19-9.22-3.45a21.18,21.18,0,0,1-2.43-1.87c-.76-.68-1.46-1.37-2.11-2.06a24.28,24.28,0,0,1-1.74-2.08,16.58,16.58,0,0,1-1.26-1.94l4.64-3.35c.25.37.56.81.94,1.33s.82,1.06,1.31,1.63,1,1.15,1.62,1.71a12.57,12.57,0,0,0,1.85,1.49,11.08,11.08,0,0,0,4.36,1.89,3,3,0,0,0,3.09-1.43,3.42,3.42,0,0,0,.66-2,3.52,3.52,0,0,0-.63-1.87,8.68,8.68,0,0,0-1.62-1.76,25.19,25.19,0,0,0-2.35-1.74L150,472Z" transform="translate(0 0)"/><path class="cls-8" d="M196.45,478.53c.13,1.1.25,2.43.36,4s.2,3.27.28,5.08.13,3.66.17,5.54.06,3.64.09,5.3l3.75-3.75q2-2,4-3.88t3.72-3.47c1.17-1.06,2.19-1.94,3-2.64l5.78,2.33q-.72,3-1.78,6.6t-2.31,7.5c-.84,2.59-1.69,5.17-2.56,7.76s-1.69,5-2.48,7.29l-6.2-2.5c1-2.77,2.12-5.81,3.29-9.09s2.28-6.64,3.33-10c-.95.94-2,2-3.16,3.13s-2.31,2.29-3.46,3.44S200,503.4,199,504.44s-2,1.94-2.7,2.68l-4.44-1.79c0-1.05-.05-2.32-.09-3.8s-.07-3-.09-4.66-.06-3.24-.11-4.87-.07-3.11-.1-4.45q-2.4,4.77-4.56,9.54T183,505.92l-6.2-2.49c1-2.19,2.09-4.51,3.26-7s2.35-4.92,3.54-7.36,2.36-4.78,3.53-7,2.26-4.23,3.29-6Z" transform="translate(0 0)"/><polygon class="cls-8" points="230.41 521.79 235.89 491.84 256.11 495.54 255.08 501.2 241.59 498.73 240.52 504.61 252.49 506.8 251.48 512.33 239.5 510.14 238.19 517.36 252.66 520.01 251.63 525.67 230.41 521.79"/><path class="cls-8" d="M281.92,496.73q6.81,0,10.45,2.41T296,507q0,5.49-3.7,7.93t-10.55,2.41h-2.16l0,10.19h-6.85l.06-30a39.75,39.75,0,0,1,4.74-.61c1.67-.11,3.14-.17,4.4-.16m.43,5.84c-.5,0-1,0-1.48,0l-1.25.09,0,8.78h2.16a11.61,11.61,0,0,0,5.36-1,3.73,3.73,0,0,0,1.81-3.6,4.31,4.31,0,0,0-.46-2.11,3.58,3.58,0,0,0-1.31-1.34,6.12,6.12,0,0,0-2.09-.71,17.44,17.44,0,0,0-2.72-.2" transform="translate(0 0)"/><polygon class="cls-8" points="316.98 525.45 311.6 495.48 331.83 491.85 332.85 497.51 319.36 499.94 320.42 505.82 332.4 503.67 333.39 509.2 321.41 511.35 322.71 518.58 337.2 515.97 338.21 521.64 316.98 525.45"/><polygon class="cls-8" points="365.06 480.99 371.46 478.54 382.33 506.98 375.93 509.43 371.32 497.36 360.56 501.47 365.18 513.54 358.77 515.98 347.91 487.54 354.31 485.09 358.46 495.97 369.22 491.86 365.06 480.99"/><path class="cls-8" d="M403.38,496.51l-16.29-25.73,5.75-3.64,9.61,15.18c.05-1.9.12-3.89.22-6s.23-4.13.4-6.13.38-3.9.62-5.72.5-3.39.8-4.72l4.72-3L425.5,482.5l-5.72,3.62-10.67-16.86a105.26,105.26,0,0,0-1,12q-.17,6.13.14,12.13Z" transform="translate(0 0)"/><path class="cls-8" d="M430.78,434.6a8.62,8.62,0,0,1-2.23,1.58,7.45,7.45,0,0,1-2.54.76,6.83,6.83,0,0,1-2.62-.21,6.23,6.23,0,0,1-2.44-1.35l2.43-4a4.16,4.16,0,0,0,2.48.89,2.84,2.84,0,0,0,1.87-.82,3.09,3.09,0,0,0,.95-1.82,3.89,3.89,0,0,0-.83-2.53l4-2.27a6.25,6.25,0,0,1,1.26,2.47,6.55,6.55,0,0,1,.13,2.6,7.37,7.37,0,0,1-.84,2.51,8.84,8.84,0,0,1-1.67,2.19m13.29,33.27L422.87,446l4.89-4.74,12.51,12.9q-.51-2.81-1-5.91c-.33-2.06-.62-4.09-.85-6.08s-.43-3.9-.57-5.73-.2-3.42-.17-4.79l4-3.88,21.2,21.86L458,454.35,444.12,440a103.86,103.86,0,0,0,1.47,12q1.08,6,2.61,11.85Z" transform="translate(0 0)"/></g><polygon class="cls-4" points="177.44 359.77 392.06 359.77 375.31 375.02 194.19 375.02 177.44 359.77"/><g class="cls-2"><path class="cls-4" d="M198.81,379.31l85.74,79.75,86.26-79.75H343.14l-53.88,48.93c-1.28,1.19-3,2.85-4.72,2.85s-3.42-1.65-4.7-2.83l-53.36-48.95Z" transform="translate(0 0)"/></g><polygon class="cls-4" points="203.18 308.83 203.18 244.88 184.4 244.88 184.4 308.83 155.99 308.83 155.99 244.88 137.2 244.88 137.2 324.88 198.76 324.88 198.76 345.97 216.86 345.97 216.86 308.83 203.18 308.83"/><g class="cls-2"><path class="cls-4" d="M328.24,324.35c-.3-6.21-.67-12.92-1.08-20s-.87-14-1.37-21.15-1.07-13.84-1.71-20.31-1.36-12.41-2.11-17.64l-.07-.43H305l-.15.27c-1.37,2.5-3,5.64-4.75,9.31s-3.67,7.7-5.61,12-3.88,8.72-5.77,13.18l-4.92,11.57-4.91-11.57c-1.91-4.5-3.85-8.93-5.78-13.18s-3.82-8.3-5.6-12-3.4-6.84-4.76-9.31l-.14-.27H244.89l-.07.43c-.76,5.25-1.47,11.18-2.11,17.64s-1.22,13.31-1.71,20.31-.95,14.11-1.37,21.15-.78,13.82-1.08,20l0,.53h18.34l0-.49c.23-7.74.53-16.17.91-25.07.35-8.34.87-16.86,1.54-25.34,1.16,2.7,2.42,5.61,3.78,8.76q2.52,5.81,5,11.62c1.63,3.88,3.22,7.59,4.74,11.12s2.82,6.55,3.89,9.06l.13.3h13.09l.13-.3q1.6-3.77,3.88-9.06t4.75-11.12q2.46-5.81,5-11.62c1.35-3.15,2.61-6.06,3.77-8.76.68,8.49,1.2,17,1.55,25.34.38,9.05.69,17.49.91,25.07l0,.49h18.34Z" transform="translate(0 0)"/><path class="cls-4" d="M410.41,244.88l-.15.14c-2.51,2.52-5.32,5.63-8.35,9.27s-6.16,7.58-9.3,11.7-6.32,8.48-9.42,12.9c-2.75,3.92-5.39,7.77-7.87,11.46V244.88H356.65v80h15.73l.14-.26c5.05-9,10.61-18,16.51-26.75A273.23,273.23,0,0,1,407,274v50.9H425.6v-80Z" transform="translate(0 0)"/></g><polygon class="cls-4" points="359.06 221.56 276.7 142.43 286.64 132.07 365.92 214.42 376.66 235.54 359.06 221.56"/><polygon class="cls-4" points="192.97 236.79 201.71 218.31 280.68 131.96 290.68 142.26 192.97 236.79"/><g class="cls-2"><path class="cls-9" d="M268.84,141.51a16,16,0,1,0,16.1-15.84,16,16,0,0,0-16.1,15.84" transform="translate(0 0)"/><path class="cls-4" d="M284.81,161.61h-.17a20,20,0,0,1,.16-39.94H285a20,20,0,0,1-.17,39.94m0-31.94a11.86,11.86,0,1,0,.1,0h-.1m-16,11.84h0Z" transform="translate(0 0)"/><path class="cls-4" d="M285.75,185.91h-.58a69.07,69.07,0,0,1-46.83-18.78,3,3,0,0,1,4.11-4.37,63,63,0,0,0,42.77,17.15h.53a63,63,0,0,0,42.51-16.44,3,3,0,0,1,4,4.44,69,69,0,0,1-46.55,18" transform="translate(0 0)"/><path class="cls-4" d="M284.41,193.43h0a3,3,0,0,1-3-3l.17-20.28a3.05,3.05,0,0,1,3-3,3,3,0,0,1,3,3l-.17,20.28a3,3,0,0,1-3,3" transform="translate(0 0)"/><path class="cls-4" d="M284.94,125.67a16.19,16.19,0,0,0-5.33.87l.12-14.46a5.33,5.33,0,0,1,10.65.09l-.12,14.46a16.13,16.13,0,0,0-5.32-1" transform="translate(0 0)"/><path class="cls-9" d="M338.12,208a10.94,10.94,0,1,0,4.79-14.72A10.94,10.94,0,0,0,338.12,208" transform="translate(0 0)"/><path class="cls-4" d="M347.88,217a14,14,0,0,1-4.33-.69,13.89,13.89,0,1,1,4.33.69m0-21.89a7.93,7.93,0,1,0,2.47.39,8.07,8.07,0,0,0-2.47-.39" transform="translate(0 0)"/></g></svg>